<mxfile host="Electron" agent="Mozilla/5.0 (Windows NT 10.0; Win64; x64) AppleWebKit/537.36 (KHTML, like Gecko) draw.io/25.0.2 Chrome/128.0.6613.186 Electron/32.2.5 Safari/537.36" version="25.0.2">
  <diagram name="Page-1" id="2THjZaWw5OLBOmzg3hzH">
    <mxGraphModel dx="2284" dy="2074" grid="1" gridSize="10" guides="1" tooltips="1" connect="1" arrows="1" fold="1" page="1" pageScale="1" pageWidth="850" pageHeight="1100" math="0" shadow="0">
      <root>
        <mxCell id="0" />
        <mxCell id="1" parent="0" />
        <mxCell id="kboe6qkDD0sC6GHv3R7k-1" value="" style="rounded=1;whiteSpace=wrap;html=1;glass=0;arcSize=5;strokeWidth=3;opacity=50;movable=0;resizable=0;rotatable=0;deletable=0;editable=0;locked=1;connectable=0;" vertex="1" parent="1">
          <mxGeometry x="410" y="-760" width="870" height="1590" as="geometry" />
        </mxCell>
        <mxCell id="kboe6qkDD0sC6GHv3R7k-2" value="" style="rounded=1;whiteSpace=wrap;html=1;strokeWidth=3;movable=0;resizable=0;rotatable=0;deletable=0;editable=0;locked=1;connectable=0;" vertex="1" parent="1">
          <mxGeometry x="470" y="530" width="510" height="250" as="geometry" />
        </mxCell>
        <mxCell id="kboe6qkDD0sC6GHv3R7k-3" value="" style="rounded=1;whiteSpace=wrap;html=1;strokeWidth=3;arcSize=10;textOpacity=50;opacity=50;movable=0;resizable=0;rotatable=0;deletable=0;editable=0;locked=1;connectable=0;" vertex="1" parent="1">
          <mxGeometry x="-40" y="-530" width="390" height="1360" as="geometry" />
        </mxCell>
        <mxCell id="kboe6qkDD0sC6GHv3R7k-4" value="" style="group" vertex="1" connectable="0" parent="1">
          <mxGeometry y="-30" width="310" height="160" as="geometry" />
        </mxCell>
        <mxCell id="kboe6qkDD0sC6GHv3R7k-5" value="" style="rounded=1;whiteSpace=wrap;html=1;strokeWidth=3;" vertex="1" parent="kboe6qkDD0sC6GHv3R7k-4">
          <mxGeometry width="310" height="160" as="geometry" />
        </mxCell>
        <mxCell id="kboe6qkDD0sC6GHv3R7k-6" value="Backup/Log Restoration" style="text;html=1;align=center;verticalAlign=middle;whiteSpace=wrap;rounded=0;fontFamily=Nova Round;fontSize=16;fontStyle=1" vertex="1" parent="kboe6qkDD0sC6GHv3R7k-4">
          <mxGeometry x="100" y="6" width="110" height="50" as="geometry" />
        </mxCell>
        <mxCell id="kboe6qkDD0sC6GHv3R7k-7" value="&lt;font face=&quot;Nova Round&quot;&gt;&lt;b&gt;EMIS&lt;/b&gt;&lt;/font&gt;" style="shape=cylinder3;whiteSpace=wrap;html=1;boundedLbl=1;backgroundOutline=1;size=15;strokeWidth=3;" vertex="1" parent="kboe6qkDD0sC6GHv3R7k-4">
          <mxGeometry x="15" y="60" width="60" height="80" as="geometry" />
        </mxCell>
        <mxCell id="kboe6qkDD0sC6GHv3R7k-8" value="&lt;font face=&quot;Nova Round&quot;&gt;&lt;b&gt;RiO&lt;/b&gt;&lt;/font&gt;" style="shape=cylinder3;whiteSpace=wrap;html=1;boundedLbl=1;backgroundOutline=1;size=15;strokeWidth=3;" vertex="1" parent="kboe6qkDD0sC6GHv3R7k-4">
          <mxGeometry x="159" y="60" width="60" height="80" as="geometry" />
        </mxCell>
        <mxCell id="kboe6qkDD0sC6GHv3R7k-9" value="&lt;font face=&quot;Nova Round&quot;&gt;&lt;b&gt;Care&lt;/b&gt;&lt;/font&gt;&lt;div&gt;&lt;font face=&quot;Nova Round&quot;&gt;&lt;b&gt;Notes&lt;/b&gt;&lt;/font&gt;&lt;/div&gt;" style="shape=cylinder3;whiteSpace=wrap;html=1;boundedLbl=1;backgroundOutline=1;size=15;strokeWidth=3;" vertex="1" parent="kboe6qkDD0sC6GHv3R7k-4">
          <mxGeometry x="230" y="60" width="60" height="80" as="geometry" />
        </mxCell>
        <mxCell id="kboe6qkDD0sC6GHv3R7k-10" value="&lt;font face=&quot;Nova Round&quot;&gt;&lt;b&gt;Adastra&lt;/b&gt;&lt;/font&gt;" style="shape=cylinder3;whiteSpace=wrap;html=1;boundedLbl=1;backgroundOutline=1;size=15;strokeWidth=3;" vertex="1" parent="kboe6qkDD0sC6GHv3R7k-4">
          <mxGeometry x="86" y="60" width="60" height="80" as="geometry" />
        </mxCell>
        <mxCell id="kboe6qkDD0sC6GHv3R7k-11" value="Source Data" style="text;html=1;align=center;verticalAlign=middle;whiteSpace=wrap;rounded=0;fontFamily=Nova Round;fontStyle=1;fontSize=22;textOpacity=50;opacity=50;" vertex="1" parent="1">
          <mxGeometry x="40" y="-520" width="230" height="30" as="geometry" />
        </mxCell>
        <mxCell id="kboe6qkDD0sC6GHv3R7k-12" value="&lt;font face=&quot;Nova Round&quot;&gt;&lt;b&gt;File Loader&lt;/b&gt;&lt;/font&gt;" style="shape=cylinder3;whiteSpace=wrap;html=1;boundedLbl=1;backgroundOutline=1;size=15;strokeWidth=3;" vertex="1" parent="1">
          <mxGeometry x="520" y="670" width="60" height="80" as="geometry" />
        </mxCell>
        <mxCell id="kboe6qkDD0sC6GHv3R7k-13" value="&lt;font face=&quot;Nova Round&quot;&gt;&lt;b&gt;Mirror&lt;/b&gt;&lt;/font&gt;" style="shape=cylinder3;whiteSpace=wrap;html=1;boundedLbl=1;backgroundOutline=1;size=15;strokeWidth=3;" vertex="1" parent="1">
          <mxGeometry x="590" y="580" width="60" height="80" as="geometry" />
        </mxCell>
        <mxCell id="kboe6qkDD0sC6GHv3R7k-14" value="&lt;font face=&quot;Nova Round&quot;&gt;&lt;b&gt;Business&lt;/b&gt;&lt;/font&gt;&lt;div&gt;&lt;font face=&quot;Nova Round&quot;&gt;&lt;b&gt;Layer&lt;/b&gt;&lt;/font&gt;&lt;/div&gt;" style="shape=cylinder3;whiteSpace=wrap;html=1;boundedLbl=1;backgroundOutline=1;size=15;strokeWidth=3;" vertex="1" parent="1">
          <mxGeometry x="740" y="580" width="60" height="80" as="geometry" />
        </mxCell>
        <mxCell id="kboe6qkDD0sC6GHv3R7k-15" value="&lt;font face=&quot;Nova Round&quot;&gt;&lt;b&gt;DW&lt;/b&gt;&lt;/font&gt;" style="shape=cylinder3;whiteSpace=wrap;html=1;boundedLbl=1;backgroundOutline=1;size=15;strokeWidth=3;" vertex="1" parent="1">
          <mxGeometry x="890" y="580" width="60" height="80" as="geometry" />
        </mxCell>
        <mxCell id="kboe6qkDD0sC6GHv3R7k-16" value="" style="endArrow=classic;html=1;rounded=1;curved=0;strokeWidth=3;" edge="1" parent="1">
          <mxGeometry width="50" height="50" relative="1" as="geometry">
            <mxPoint x="586" y="720" as="sourcePoint" />
            <mxPoint x="610" y="670" as="targetPoint" />
            <Array as="points">
              <mxPoint x="610" y="720" />
            </Array>
          </mxGeometry>
        </mxCell>
        <mxCell id="kboe6qkDD0sC6GHv3R7k-17" value="" style="endArrow=classic;html=1;rounded=0;strokeWidth=3;" edge="1" parent="1">
          <mxGeometry width="50" height="50" relative="1" as="geometry">
            <mxPoint x="660" y="620" as="sourcePoint" />
            <mxPoint x="730" y="620" as="targetPoint" />
          </mxGeometry>
        </mxCell>
        <mxCell id="kboe6qkDD0sC6GHv3R7k-18" value="" style="endArrow=classic;html=1;rounded=0;strokeWidth=3;" edge="1" parent="1">
          <mxGeometry width="50" height="50" relative="1" as="geometry">
            <mxPoint x="810" y="620" as="sourcePoint" />
            <mxPoint x="880" y="620" as="targetPoint" />
          </mxGeometry>
        </mxCell>
        <mxCell id="kboe6qkDD0sC6GHv3R7k-19" value="" style="endArrow=classic;html=1;rounded=1;strokeWidth=3;curved=0;" edge="1" parent="1">
          <mxGeometry width="50" height="50" relative="1" as="geometry">
            <mxPoint x="302" y="730" as="sourcePoint" />
            <mxPoint x="510" y="730" as="targetPoint" />
            <Array as="points">
              <mxPoint x="423" y="730" />
            </Array>
          </mxGeometry>
        </mxCell>
        <mxCell id="kboe6qkDD0sC6GHv3R7k-20" value="CP1PL-BISQLLV1" style="text;html=1;align=center;verticalAlign=middle;whiteSpace=wrap;rounded=0;fontFamily=Nova Round;fontStyle=1;fontSize=22;" vertex="1" parent="1">
          <mxGeometry x="485" y="540" width="95" height="70" as="geometry" />
        </mxCell>
        <mxCell id="kboe6qkDD0sC6GHv3R7k-21" value="&lt;font face=&quot;Nova Round&quot; style=&quot;font-size: 12px;&quot;&gt;&lt;b style=&quot;&quot;&gt;Sub-mission&lt;/b&gt;&lt;/font&gt;&lt;div style=&quot;font-size: 12px;&quot;&gt;&lt;font face=&quot;Nova Round&quot; style=&quot;font-size: 12px;&quot;&gt;&lt;b style=&quot;&quot;&gt;DB&lt;/b&gt;&lt;/font&gt;&lt;/div&gt;" style="shape=cylinder3;whiteSpace=wrap;html=1;boundedLbl=1;backgroundOutline=1;size=15;strokeWidth=3;fontSize=11;" vertex="1" parent="1">
          <mxGeometry x="890" y="670" width="60" height="80" as="geometry" />
        </mxCell>
        <mxCell id="kboe6qkDD0sC6GHv3R7k-22" value="" style="endArrow=classic;html=1;rounded=1;strokeWidth=3;curved=0;" edge="1" parent="1">
          <mxGeometry width="50" height="50" relative="1" as="geometry">
            <mxPoint x="770" y="670" as="sourcePoint" />
            <mxPoint x="880" y="720" as="targetPoint" />
            <Array as="points">
              <mxPoint x="770" y="720" />
            </Array>
          </mxGeometry>
        </mxCell>
        <mxCell id="kboe6qkDD0sC6GHv3R7k-23" value="" style="group" vertex="1" connectable="0" parent="1">
          <mxGeometry x="1060" y="520" width="160" height="260" as="geometry" />
        </mxCell>
        <mxCell id="kboe6qkDD0sC6GHv3R7k-24" value="" style="rounded=1;whiteSpace=wrap;html=1;strokeWidth=3;" vertex="1" parent="kboe6qkDD0sC6GHv3R7k-23">
          <mxGeometry width="160" height="260" as="geometry" />
        </mxCell>
        <mxCell id="kboe6qkDD0sC6GHv3R7k-25" value="CP1PL-BISQLLV2" style="text;html=1;align=center;verticalAlign=middle;whiteSpace=wrap;rounded=0;fontFamily=Nova Round;fontStyle=1;fontSize=22;" vertex="1" parent="kboe6qkDD0sC6GHv3R7k-23">
          <mxGeometry x="8" y="20.799999999999986" width="150" height="66.56" as="geometry" />
        </mxCell>
        <mxCell id="kboe6qkDD0sC6GHv3R7k-26" value="" style="group" vertex="1" connectable="0" parent="kboe6qkDD0sC6GHv3R7k-23">
          <mxGeometry x="15.5" y="124.80000000000004" width="129" height="97.76000000000005" as="geometry" />
        </mxCell>
        <mxCell id="kboe6qkDD0sC6GHv3R7k-27" value="" style="sketch=0;outlineConnect=0;fontColor=#232F3E;gradientColor=none;fillColor=#000000;strokeColor=none;dashed=0;verticalLabelPosition=bottom;verticalAlign=top;align=center;html=1;fontSize=12;fontStyle=0;aspect=fixed;pointerEvents=1;shape=mxgraph.aws4.iot_sitewise_asset_model;" vertex="1" parent="kboe6qkDD0sC6GHv3R7k-26">
          <mxGeometry x="1" width="58" height="58" as="geometry" />
        </mxCell>
        <mxCell id="kboe6qkDD0sC6GHv3R7k-28" value="TOBI" style="text;html=1;align=center;verticalAlign=middle;whiteSpace=wrap;rounded=0;fontStyle=1;fontFamily=Nova Round;" vertex="1" parent="kboe6qkDD0sC6GHv3R7k-26">
          <mxGeometry y="60.31999999999999" width="60" height="31.20000000000001" as="geometry" />
        </mxCell>
        <mxCell id="kboe6qkDD0sC6GHv3R7k-29" value="" style="sketch=0;outlineConnect=0;fontColor=#232F3E;gradientColor=none;fillColor=#000000;strokeColor=none;dashed=0;verticalLabelPosition=bottom;verticalAlign=top;align=center;html=1;fontSize=12;fontStyle=0;aspect=fixed;pointerEvents=1;shape=mxgraph.aws4.iot_sitewise_asset_model;" vertex="1" parent="kboe6qkDD0sC6GHv3R7k-26">
          <mxGeometry x="70" width="58" height="58" as="geometry" />
        </mxCell>
        <mxCell id="kboe6qkDD0sC6GHv3R7k-30" value="Data Dictionary" style="text;html=1;align=center;verticalAlign=middle;whiteSpace=wrap;rounded=0;fontStyle=1;fontFamily=Nova Round;" vertex="1" parent="kboe6qkDD0sC6GHv3R7k-26">
          <mxGeometry x="70" y="66.56" width="59" height="31.20000000000001" as="geometry" />
        </mxCell>
        <mxCell id="kboe6qkDD0sC6GHv3R7k-31" value="" style="endArrow=classic;html=1;rounded=0;strokeWidth=3;" edge="1" parent="1">
          <mxGeometry width="50" height="50" relative="1" as="geometry">
            <mxPoint x="957" y="622" as="sourcePoint" />
            <mxPoint x="1050" y="622" as="targetPoint" />
          </mxGeometry>
        </mxCell>
        <mxCell id="kboe6qkDD0sC6GHv3R7k-32" value="" style="group" vertex="1" connectable="0" parent="1">
          <mxGeometry x="1369" y="830" width="160" height="260" as="geometry" />
        </mxCell>
        <mxCell id="kboe6qkDD0sC6GHv3R7k-33" value="" style="rounded=1;whiteSpace=wrap;html=1;strokeWidth=3;" vertex="1" parent="kboe6qkDD0sC6GHv3R7k-32">
          <mxGeometry width="160" height="260" as="geometry" />
        </mxCell>
        <mxCell id="kboe6qkDD0sC6GHv3R7k-34" value="" style="group" vertex="1" connectable="0" parent="kboe6qkDD0sC6GHv3R7k-32">
          <mxGeometry x="20" y="62.40000000000002" width="120" height="176.80000000000007" as="geometry" />
        </mxCell>
        <mxCell id="kboe6qkDD0sC6GHv3R7k-35" value="" style="html=1;verticalLabelPosition=bottom;align=center;labelBackgroundColor=#ffffff;verticalAlign=top;strokeWidth=3;strokeColor=#000000;shadow=0;dashed=0;shape=mxgraph.ios7.icons.down;" vertex="1" parent="kboe6qkDD0sC6GHv3R7k-34">
          <mxGeometry x="5" width="50" height="57.19999999999999" as="geometry" />
        </mxCell>
        <mxCell id="kboe6qkDD0sC6GHv3R7k-36" value="ECDS" style="text;html=1;align=center;verticalAlign=middle;whiteSpace=wrap;rounded=0;fontStyle=1;fontFamily=Nova Round;" vertex="1" parent="kboe6qkDD0sC6GHv3R7k-34">
          <mxGeometry y="57.19999999999999" width="60" height="31.20000000000001" as="geometry" />
        </mxCell>
        <mxCell id="kboe6qkDD0sC6GHv3R7k-37" value="" style="html=1;verticalLabelPosition=bottom;align=center;labelBackgroundColor=#ffffff;verticalAlign=top;strokeWidth=3;strokeColor=#000000;shadow=0;dashed=0;shape=mxgraph.ios7.icons.down;" vertex="1" parent="kboe6qkDD0sC6GHv3R7k-34">
          <mxGeometry x="5" y="88.40000000000003" width="50" height="57.19999999999999" as="geometry" />
        </mxCell>
        <mxCell id="kboe6qkDD0sC6GHv3R7k-38" value="CSDS" style="text;html=1;align=center;verticalAlign=middle;whiteSpace=wrap;rounded=0;fontStyle=1;fontFamily=Nova Round;" vertex="1" parent="kboe6qkDD0sC6GHv3R7k-34">
          <mxGeometry y="145.60000000000002" width="60" height="31.20000000000001" as="geometry" />
        </mxCell>
        <mxCell id="kboe6qkDD0sC6GHv3R7k-39" value="" style="html=1;verticalLabelPosition=bottom;align=center;labelBackgroundColor=#ffffff;verticalAlign=top;strokeWidth=3;strokeColor=#000000;shadow=0;dashed=0;shape=mxgraph.ios7.icons.down;" vertex="1" parent="kboe6qkDD0sC6GHv3R7k-34">
          <mxGeometry x="65" width="50" height="57.19999999999999" as="geometry" />
        </mxCell>
        <mxCell id="kboe6qkDD0sC6GHv3R7k-40" value="MHSDS" style="text;html=1;align=center;verticalAlign=middle;whiteSpace=wrap;rounded=0;fontStyle=1;fontFamily=Nova Round;" vertex="1" parent="kboe6qkDD0sC6GHv3R7k-34">
          <mxGeometry x="60" y="57.19999999999999" width="60" height="31.20000000000001" as="geometry" />
        </mxCell>
        <mxCell id="kboe6qkDD0sC6GHv3R7k-41" value="" style="html=1;verticalLabelPosition=bottom;align=center;labelBackgroundColor=#ffffff;verticalAlign=top;strokeWidth=3;strokeColor=#000000;shadow=0;dashed=0;shape=mxgraph.ios7.icons.down;" vertex="1" parent="kboe6qkDD0sC6GHv3R7k-34">
          <mxGeometry x="65" y="88.40000000000003" width="50" height="57.19999999999999" as="geometry" />
        </mxCell>
        <mxCell id="kboe6qkDD0sC6GHv3R7k-42" value="CDS" style="text;html=1;align=center;verticalAlign=middle;whiteSpace=wrap;rounded=0;fontStyle=1;fontFamily=Nova Round;" vertex="1" parent="kboe6qkDD0sC6GHv3R7k-34">
          <mxGeometry x="60" y="145.60000000000002" width="60" height="31.20000000000001" as="geometry" />
        </mxCell>
        <mxCell id="kboe6qkDD0sC6GHv3R7k-43" value="Submissions" style="text;html=1;align=center;verticalAlign=middle;whiteSpace=wrap;rounded=0;fontFamily=Nova Round;fontStyle=1;fontSize=22;" vertex="1" parent="kboe6qkDD0sC6GHv3R7k-32">
          <mxGeometry x="5" width="150" height="66.56" as="geometry" />
        </mxCell>
        <mxCell id="kboe6qkDD0sC6GHv3R7k-44" value="" style="endArrow=classic;html=1;rounded=1;curved=0;strokeWidth=3;" edge="1" parent="1">
          <mxGeometry width="50" height="50" relative="1" as="geometry">
            <mxPoint x="960" y="720" as="sourcePoint" />
            <mxPoint x="1360" y="880" as="targetPoint" />
            <Array as="points">
              <mxPoint x="1010" y="720" />
              <mxPoint x="1010" y="880" />
            </Array>
          </mxGeometry>
        </mxCell>
        <mxCell id="kboe6qkDD0sC6GHv3R7k-45" value="" style="endArrow=classic;html=1;rounded=1;strokeWidth=3;curved=0;" edge="1" parent="1">
          <mxGeometry width="50" height="50" relative="1" as="geometry">
            <mxPoint x="760" y="1140" as="sourcePoint" />
            <mxPoint x="549.71" y="755" as="targetPoint" />
            <Array as="points">
              <mxPoint x="550" y="1140" />
            </Array>
          </mxGeometry>
        </mxCell>
        <mxCell id="kboe6qkDD0sC6GHv3R7k-46" value="" style="endArrow=none;html=1;rounded=0;strokeWidth=3;textOpacity=50;opacity=50;" edge="1" parent="1">
          <mxGeometry width="50" height="50" relative="1" as="geometry">
            <mxPoint x="-20" y="-479" as="sourcePoint" />
            <mxPoint x="330" y="-479" as="targetPoint" />
          </mxGeometry>
        </mxCell>
        <mxCell id="kboe6qkDD0sC6GHv3R7k-47" value="" style="group" vertex="1" connectable="0" parent="1">
          <mxGeometry x="1330" y="530" width="306" height="240" as="geometry" />
        </mxCell>
        <mxCell id="kboe6qkDD0sC6GHv3R7k-48" value="" style="rounded=1;whiteSpace=wrap;html=1;opacity=50;strokeWidth=3;arcSize=8;" vertex="1" parent="kboe6qkDD0sC6GHv3R7k-47">
          <mxGeometry width="306" height="240" as="geometry" />
        </mxCell>
        <mxCell id="kboe6qkDD0sC6GHv3R7k-49" value="" style="rounded=1;whiteSpace=wrap;html=1;arcSize=10;strokeWidth=3;" vertex="1" parent="kboe6qkDD0sC6GHv3R7k-47">
          <mxGeometry x="40" y="18" width="213" height="200" as="geometry" />
        </mxCell>
        <mxCell id="kboe6qkDD0sC6GHv3R7k-50" value="" style="group" vertex="1" connectable="0" parent="kboe6qkDD0sC6GHv3R7k-47">
          <mxGeometry x="51" y="90" width="254" height="150" as="geometry" />
        </mxCell>
        <mxCell id="kboe6qkDD0sC6GHv3R7k-51" value="" style="group" vertex="1" connectable="0" parent="kboe6qkDD0sC6GHv3R7k-50">
          <mxGeometry x="120" width="134" height="150" as="geometry" />
        </mxCell>
        <mxCell id="kboe6qkDD0sC6GHv3R7k-52" value="" style="group" vertex="1" connectable="0" parent="kboe6qkDD0sC6GHv3R7k-51">
          <mxGeometry x="-147" y="-90" width="285" height="240" as="geometry" />
        </mxCell>
        <mxCell id="kboe6qkDD0sC6GHv3R7k-53" value="Azure Fabric" style="text;html=1;align=center;verticalAlign=middle;whiteSpace=wrap;rounded=0;fontFamily=Nova Round;fontStyle=1;fontSize=22;textOpacity=50;textDirection=vertical-lr;" vertex="1" parent="kboe6qkDD0sC6GHv3R7k-52">
          <mxGeometry x="245" y="25" width="30" height="190" as="geometry" />
        </mxCell>
        <mxCell id="kboe6qkDD0sC6GHv3R7k-54" value="" style="endArrow=none;html=1;rounded=0;strokeWidth=3;opacity=50;" edge="1" parent="kboe6qkDD0sC6GHv3R7k-52">
          <mxGeometry width="50" height="50" relative="1" as="geometry">
            <mxPoint x="240" y="11" as="sourcePoint" />
            <mxPoint x="240" y="230" as="targetPoint" />
          </mxGeometry>
        </mxCell>
        <mxCell id="kboe6qkDD0sC6GHv3R7k-55" value="Reports &amp;amp; Dashboards" style="text;html=1;align=center;verticalAlign=middle;whiteSpace=wrap;rounded=0;fontFamily=Nova Round;fontSize=21;fontStyle=1" vertex="1" parent="kboe6qkDD0sC6GHv3R7k-52">
          <mxGeometry x="26" y="40" width="193" height="30" as="geometry" />
        </mxCell>
        <mxCell id="kboe6qkDD0sC6GHv3R7k-56" value="" style="group" vertex="1" connectable="0" parent="kboe6qkDD0sC6GHv3R7k-47">
          <mxGeometry x="116.5" y="90" width="60" height="60" as="geometry" />
        </mxCell>
        <mxCell id="kboe6qkDD0sC6GHv3R7k-57" value="" style="ellipse;whiteSpace=wrap;html=1;aspect=fixed;strokeWidth=3;" vertex="1" parent="kboe6qkDD0sC6GHv3R7k-56">
          <mxGeometry width="60" height="60" as="geometry" />
        </mxCell>
        <mxCell id="kboe6qkDD0sC6GHv3R7k-58" value="" style="group" vertex="1" connectable="0" parent="kboe6qkDD0sC6GHv3R7k-56">
          <mxGeometry x="10.601928050787667" y="15.141076886903363" width="38.79614389842467" height="31.830472607571124" as="geometry" />
        </mxCell>
        <mxCell id="kboe6qkDD0sC6GHv3R7k-59" value="" style="endArrow=none;html=1;rounded=1;curved=0;strokeWidth=4;" edge="1" parent="kboe6qkDD0sC6GHv3R7k-58">
          <mxGeometry width="50" height="50" relative="1" as="geometry">
            <mxPoint x="7.0538443451681205" y="24.688455208088406" as="sourcePoint" />
            <mxPoint x="31.742299553256544" y="24.688455208088406" as="targetPoint" />
            <Array as="points">
              <mxPoint y="24.688455208088406" />
              <mxPoint />
              <mxPoint x="38.79614389842467" />
              <mxPoint x="38.79614389842467" y="24.688455208088406" />
            </Array>
          </mxGeometry>
        </mxCell>
        <mxCell id="kboe6qkDD0sC6GHv3R7k-60" value="" style="rounded=1;whiteSpace=wrap;html=1;fillColor=#000000;" vertex="1" parent="kboe6qkDD0sC6GHv3R7k-58">
          <mxGeometry x="9.169997648718557" y="17.193745591347284" width="3.5269221725840603" height="13.225958147190218" as="geometry" />
        </mxCell>
        <mxCell id="kboe6qkDD0sC6GHv3R7k-61" value="" style="ellipse;whiteSpace=wrap;html=1;aspect=fixed;fillColor=#000000;" vertex="1" parent="kboe6qkDD0sC6GHv3R7k-58">
          <mxGeometry x="9.169997648718557" y="15.694803667999059" width="3.5269221725840576" height="3.5269221725840576" as="geometry" />
        </mxCell>
        <mxCell id="kboe6qkDD0sC6GHv3R7k-62" value="" style="ellipse;whiteSpace=wrap;html=1;aspect=fixed;fillColor=#000000;" vertex="1" parent="kboe6qkDD0sC6GHv3R7k-58">
          <mxGeometry x="9.169997648718557" y="28.215377380672464" width="3.5269221725840576" height="3.5269221725840576" as="geometry" />
        </mxCell>
        <mxCell id="kboe6qkDD0sC6GHv3R7k-63" value="" style="rounded=1;whiteSpace=wrap;html=1;fillColor=#000000;" vertex="1" parent="kboe6qkDD0sC6GHv3R7k-58">
          <mxGeometry x="14.813073124853052" y="10.580766517752174" width="3.5269221725840603" height="19.927110275099928" as="geometry" />
        </mxCell>
        <mxCell id="kboe6qkDD0sC6GHv3R7k-64" value="" style="ellipse;whiteSpace=wrap;html=1;aspect=fixed;fillColor=#000000;" vertex="1" parent="kboe6qkDD0sC6GHv3R7k-58">
          <mxGeometry x="14.813073124853052" y="9.169997648718551" width="3.5269221725840576" height="3.5269221725840576" as="geometry" />
        </mxCell>
        <mxCell id="kboe6qkDD0sC6GHv3R7k-65" value="" style="ellipse;whiteSpace=wrap;html=1;aspect=fixed;fillColor=#000000;" vertex="1" parent="kboe6qkDD0sC6GHv3R7k-58">
          <mxGeometry x="14.813073124853052" y="28.30355043498707" width="3.5269221725840576" height="3.5269221725840576" as="geometry" />
        </mxCell>
        <mxCell id="kboe6qkDD0sC6GHv3R7k-66" value="" style="rounded=1;whiteSpace=wrap;html=1;fillColor=#000000;" vertex="1" parent="kboe6qkDD0sC6GHv3R7k-58">
          <mxGeometry x="20.45614860098755" y="14.107688690336232" width="3.5269221725840603" height="16.312015048201268" as="geometry" />
        </mxCell>
        <mxCell id="kboe6qkDD0sC6GHv3R7k-67" value="" style="ellipse;whiteSpace=wrap;html=1;aspect=fixed;fillColor=#000000;" vertex="1" parent="kboe6qkDD0sC6GHv3R7k-58">
          <mxGeometry x="20.45614860098755" y="12.69691982130261" width="3.5269221725840576" height="3.5269221725840576" as="geometry" />
        </mxCell>
        <mxCell id="kboe6qkDD0sC6GHv3R7k-68" value="" style="ellipse;whiteSpace=wrap;html=1;aspect=fixed;fillColor=#000000;" vertex="1" parent="kboe6qkDD0sC6GHv3R7k-58">
          <mxGeometry x="20.45614860098755" y="28.215377380672464" width="3.5269221725840576" height="3.5269221725840576" as="geometry" />
        </mxCell>
        <mxCell id="kboe6qkDD0sC6GHv3R7k-69" value="" style="rounded=1;whiteSpace=wrap;html=1;fillColor=#000000;" vertex="1" parent="kboe6qkDD0sC6GHv3R7k-58">
          <mxGeometry x="26.099224077122045" y="7.053844345168116" width="3.5269221725840603" height="23.365859393369387" as="geometry" />
        </mxCell>
        <mxCell id="kboe6qkDD0sC6GHv3R7k-70" value="" style="ellipse;whiteSpace=wrap;html=1;aspect=fixed;fillColor=#000000;" vertex="1" parent="kboe6qkDD0sC6GHv3R7k-58">
          <mxGeometry x="26.099224077122045" y="5.643075476134492" width="3.5269221725840576" height="3.5269221725840576" as="geometry" />
        </mxCell>
        <mxCell id="kboe6qkDD0sC6GHv3R7k-71" value="" style="ellipse;whiteSpace=wrap;html=1;aspect=fixed;fillColor=#000000;" vertex="1" parent="kboe6qkDD0sC6GHv3R7k-58">
          <mxGeometry x="26.099224077122045" y="28.215377380672464" width="3.5269221725840576" height="3.5269221725840576" as="geometry" />
        </mxCell>
        <mxCell id="kboe6qkDD0sC6GHv3R7k-72" value="TOBI Reports &amp;amp; Dashboards" style="text;html=1;align=center;verticalAlign=middle;whiteSpace=wrap;rounded=0;fontStyle=1;fontFamily=Nova Round;" vertex="1" parent="kboe6qkDD0sC6GHv3R7k-47">
          <mxGeometry x="79.25" y="160" width="134.5" height="31.2" as="geometry" />
        </mxCell>
        <mxCell id="kboe6qkDD0sC6GHv3R7k-73" value="" style="endArrow=classic;html=1;rounded=0;strokeWidth=3;" edge="1" parent="1">
          <mxGeometry width="50" height="50" relative="1" as="geometry">
            <mxPoint x="1228" y="619.58" as="sourcePoint" />
            <mxPoint x="1360" y="620" as="targetPoint" />
          </mxGeometry>
        </mxCell>
        <mxCell id="kboe6qkDD0sC6GHv3R7k-74" value="" style="endArrow=classic;html=1;rounded=1;strokeWidth=3;curved=0;" edge="1" parent="1">
          <mxGeometry width="50" height="50" relative="1" as="geometry">
            <mxPoint x="621.41" y="670" as="sourcePoint" />
            <mxPoint x="760" y="1100" as="targetPoint" />
            <Array as="points">
              <mxPoint x="621" y="1100" />
            </Array>
          </mxGeometry>
        </mxCell>
        <mxCell id="kboe6qkDD0sC6GHv3R7k-75" value="" style="rounded=1;whiteSpace=wrap;html=1;strokeWidth=3;movable=0;resizable=0;rotatable=0;deletable=0;editable=0;locked=1;connectable=0;" vertex="1" parent="1">
          <mxGeometry y="-440" width="310" height="360" as="geometry" />
        </mxCell>
        <mxCell id="kboe6qkDD0sC6GHv3R7k-76" value="Live Systems" style="text;html=1;align=center;verticalAlign=middle;whiteSpace=wrap;rounded=0;fontFamily=Nova Round;fontSize=16;fontStyle=1" vertex="1" parent="1">
          <mxGeometry x="100" y="-441" width="110" height="50" as="geometry" />
        </mxCell>
        <mxCell id="kboe6qkDD0sC6GHv3R7k-77" value="&lt;font face=&quot;Nova Round&quot;&gt;&lt;b&gt;EMIS&lt;/b&gt;&lt;/font&gt;" style="shape=cylinder3;whiteSpace=wrap;html=1;boundedLbl=1;backgroundOutline=1;size=15;strokeWidth=3;" vertex="1" parent="1">
          <mxGeometry x="48" y="-384" width="60" height="80" as="geometry" />
        </mxCell>
        <mxCell id="kboe6qkDD0sC6GHv3R7k-78" value="&lt;font face=&quot;Nova Round&quot;&gt;&lt;b&gt;RiO&lt;/b&gt;&lt;/font&gt;" style="shape=cylinder3;whiteSpace=wrap;html=1;boundedLbl=1;backgroundOutline=1;size=15;strokeWidth=3;" vertex="1" parent="1">
          <mxGeometry x="192" y="-384" width="60" height="80" as="geometry" />
        </mxCell>
        <mxCell id="kboe6qkDD0sC6GHv3R7k-79" value="&lt;font face=&quot;Nova Round&quot;&gt;&lt;b&gt;PCMIS&lt;/b&gt;&lt;/font&gt;" style="shape=cylinder3;whiteSpace=wrap;html=1;boundedLbl=1;backgroundOutline=1;size=15;strokeWidth=3;" vertex="1" parent="1">
          <mxGeometry x="192" y="-298" width="60" height="80" as="geometry" />
        </mxCell>
        <mxCell id="kboe6qkDD0sC6GHv3R7k-80" value="&lt;font face=&quot;Nova Round&quot;&gt;&lt;b&gt;Adastra&lt;/b&gt;&lt;/font&gt;" style="shape=cylinder3;whiteSpace=wrap;html=1;boundedLbl=1;backgroundOutline=1;size=15;strokeWidth=3;" vertex="1" parent="1">
          <mxGeometry x="119" y="-384" width="60" height="80" as="geometry" />
        </mxCell>
        <mxCell id="kboe6qkDD0sC6GHv3R7k-81" value="&lt;font face=&quot;Nova Round&quot;&gt;&lt;b&gt;CHIS/&lt;/b&gt;&lt;/font&gt;&lt;div&gt;&lt;font face=&quot;Nova Round&quot;&gt;&lt;b&gt;OUH/&lt;/b&gt;&lt;/font&gt;&lt;/div&gt;&lt;div&gt;&lt;font face=&quot;Nova Round&quot;&gt;&lt;b&gt;RBFT&lt;/b&gt;&lt;/font&gt;&lt;/div&gt;" style="shape=cylinder3;whiteSpace=wrap;html=1;boundedLbl=1;backgroundOutline=1;size=15;strokeWidth=3;" vertex="1" parent="1">
          <mxGeometry x="119" y="-298" width="60" height="80" as="geometry" />
        </mxCell>
        <mxCell id="kboe6qkDD0sC6GHv3R7k-82" value="" style="group" vertex="1" connectable="0" parent="1">
          <mxGeometry y="190" width="310" height="340" as="geometry" />
        </mxCell>
        <mxCell id="kboe6qkDD0sC6GHv3R7k-83" value="" style="rounded=1;whiteSpace=wrap;html=1;strokeWidth=3;" vertex="1" parent="kboe6qkDD0sC6GHv3R7k-82">
          <mxGeometry width="310" height="340" as="geometry" />
        </mxCell>
        <mxCell id="kboe6qkDD0sC6GHv3R7k-84" value="Linked Server Access" style="text;html=1;align=center;verticalAlign=middle;whiteSpace=wrap;rounded=0;fontFamily=Nova Round;fontSize=16;fontStyle=1" vertex="1" parent="kboe6qkDD0sC6GHv3R7k-82">
          <mxGeometry x="95" y="4" width="110" height="50" as="geometry" />
        </mxCell>
        <mxCell id="kboe6qkDD0sC6GHv3R7k-85" value="" style="group" vertex="1" connectable="0" parent="kboe6qkDD0sC6GHv3R7k-82">
          <mxGeometry x="10" y="190" width="290" height="120" as="geometry" />
        </mxCell>
        <mxCell id="kboe6qkDD0sC6GHv3R7k-86" value="" style="rounded=1;whiteSpace=wrap;html=1;strokeWidth=3;" vertex="1" parent="kboe6qkDD0sC6GHv3R7k-85">
          <mxGeometry width="290" height="120" as="geometry" />
        </mxCell>
        <mxCell id="kboe6qkDD0sC6GHv3R7k-87" value="Alternative Engine Based" style="text;html=1;align=center;verticalAlign=middle;whiteSpace=wrap;rounded=0;fontFamily=Nova Round;fontSize=12;fontStyle=1" vertex="1" parent="kboe6qkDD0sC6GHv3R7k-85">
          <mxGeometry x="40" y="6" width="200" height="20" as="geometry" />
        </mxCell>
        <mxCell id="kboe6qkDD0sC6GHv3R7k-88" value="&lt;font face=&quot;Nova Round&quot;&gt;&lt;b&gt;Think Learning&lt;/b&gt;&lt;/font&gt;" style="shape=cylinder3;whiteSpace=wrap;html=1;boundedLbl=1;backgroundOutline=1;size=15;strokeWidth=3;" vertex="1" parent="kboe6qkDD0sC6GHv3R7k-85">
          <mxGeometry x="40" y="30" width="60" height="80" as="geometry" />
        </mxCell>
        <mxCell id="kboe6qkDD0sC6GHv3R7k-89" value="&lt;font face=&quot;Nova Round&quot;&gt;&lt;b&gt;Allocate&lt;/b&gt;&lt;/font&gt;" style="shape=cylinder3;whiteSpace=wrap;html=1;boundedLbl=1;backgroundOutline=1;size=15;strokeWidth=3;" vertex="1" parent="kboe6qkDD0sC6GHv3R7k-85">
          <mxGeometry x="110" y="30" width="60" height="80" as="geometry" />
        </mxCell>
        <mxCell id="kboe6qkDD0sC6GHv3R7k-90" value="&lt;font face=&quot;Nova Round&quot;&gt;&lt;b&gt;ePMA&lt;/b&gt;&lt;/font&gt;" style="shape=cylinder3;whiteSpace=wrap;html=1;boundedLbl=1;backgroundOutline=1;size=15;strokeWidth=3;" vertex="1" parent="kboe6qkDD0sC6GHv3R7k-85">
          <mxGeometry x="180" y="30" width="60" height="80" as="geometry" />
        </mxCell>
        <mxCell id="kboe6qkDD0sC6GHv3R7k-91" value="" style="group" vertex="1" connectable="0" parent="kboe6qkDD0sC6GHv3R7k-82">
          <mxGeometry x="10" y="60" width="290" height="120" as="geometry" />
        </mxCell>
        <mxCell id="kboe6qkDD0sC6GHv3R7k-92" value="" style="rounded=1;whiteSpace=wrap;html=1;strokeWidth=3;" vertex="1" parent="kboe6qkDD0sC6GHv3R7k-91">
          <mxGeometry width="290" height="120" as="geometry" />
        </mxCell>
        <mxCell id="kboe6qkDD0sC6GHv3R7k-93" value="SQL Server Based" style="text;html=1;align=center;verticalAlign=middle;whiteSpace=wrap;rounded=0;fontFamily=Nova Round;fontSize=12;fontStyle=1" vertex="1" parent="kboe6qkDD0sC6GHv3R7k-91">
          <mxGeometry x="85" y="7" width="110" height="20" as="geometry" />
        </mxCell>
        <mxCell id="kboe6qkDD0sC6GHv3R7k-94" value="&lt;font face=&quot;Nova Round&quot;&gt;&lt;b&gt;sys2000&lt;/b&gt;&lt;/font&gt;" style="shape=cylinder3;whiteSpace=wrap;html=1;boundedLbl=1;backgroundOutline=1;size=15;strokeWidth=3;" vertex="1" parent="kboe6qkDD0sC6GHv3R7k-91">
          <mxGeometry x="110" y="30" width="60" height="80" as="geometry" />
        </mxCell>
        <mxCell id="kboe6qkDD0sC6GHv3R7k-95" value="&lt;font face=&quot;Nova Round&quot;&gt;&lt;b&gt;hrforms&lt;/b&gt;&lt;/font&gt;" style="shape=cylinder3;whiteSpace=wrap;html=1;boundedLbl=1;backgroundOutline=1;size=15;strokeWidth=3;" vertex="1" parent="kboe6qkDD0sC6GHv3R7k-91">
          <mxGeometry x="180" y="30" width="60" height="80" as="geometry" />
        </mxCell>
        <mxCell id="kboe6qkDD0sC6GHv3R7k-96" value="&lt;font face=&quot;Nova Round&quot;&gt;&lt;b&gt;Ulysses&lt;/b&gt;&lt;/font&gt;" style="shape=cylinder3;whiteSpace=wrap;html=1;boundedLbl=1;backgroundOutline=1;size=15;strokeWidth=3;" vertex="1" parent="kboe6qkDD0sC6GHv3R7k-91">
          <mxGeometry x="40" y="30" width="60" height="80" as="geometry" />
        </mxCell>
        <mxCell id="kboe6qkDD0sC6GHv3R7k-97" value="" style="endArrow=classic;html=1;rounded=1;strokeWidth=3;curved=0;" edge="1" parent="1">
          <mxGeometry width="50" height="50" relative="1" as="geometry">
            <mxPoint x="301" y="450" as="sourcePoint" />
            <mxPoint x="510" y="710" as="targetPoint" />
            <Array as="points">
              <mxPoint x="400" y="450" />
              <mxPoint x="400" y="710" />
            </Array>
          </mxGeometry>
        </mxCell>
        <mxCell id="kboe6qkDD0sC6GHv3R7k-98" value="" style="group" vertex="1" connectable="0" parent="1">
          <mxGeometry y="540" width="310" height="240" as="geometry" />
        </mxCell>
        <mxCell id="kboe6qkDD0sC6GHv3R7k-99" value="" style="rounded=1;whiteSpace=wrap;html=1;strokeWidth=3;" vertex="1" parent="kboe6qkDD0sC6GHv3R7k-98">
          <mxGeometry width="310" height="240" as="geometry" />
        </mxCell>
        <mxCell id="kboe6qkDD0sC6GHv3R7k-100" value="Files" style="text;html=1;align=center;verticalAlign=middle;whiteSpace=wrap;rounded=0;fontFamily=Nova Round;fontSize=16;fontStyle=1" vertex="1" parent="kboe6qkDD0sC6GHv3R7k-98">
          <mxGeometry x="100" y="10" width="110" height="30" as="geometry" />
        </mxCell>
        <mxCell id="kboe6qkDD0sC6GHv3R7k-101" value="&lt;font face=&quot;Nova Round&quot;&gt;&lt;b&gt;Domino&lt;/b&gt;&lt;/font&gt;" style="shape=card;whiteSpace=wrap;html=1;strokeWidth=3;size=20;" vertex="1" parent="kboe6qkDD0sC6GHv3R7k-98">
          <mxGeometry x="20" y="50" width="60" height="80" as="geometry" />
        </mxCell>
        <mxCell id="kboe6qkDD0sC6GHv3R7k-102" value="&lt;font face=&quot;Nova Round&quot;&gt;&lt;b&gt;ESR&lt;/b&gt;&lt;/font&gt;" style="shape=card;whiteSpace=wrap;html=1;strokeWidth=3;size=20;" vertex="1" parent="kboe6qkDD0sC6GHv3R7k-98">
          <mxGeometry x="90" y="50" width="60" height="80" as="geometry" />
        </mxCell>
        <mxCell id="kboe6qkDD0sC6GHv3R7k-103" value="&lt;font face=&quot;Nova Round&quot;&gt;&lt;b&gt;I Want Great Care&lt;/b&gt;&lt;/font&gt;" style="shape=card;whiteSpace=wrap;html=1;strokeWidth=3;size=20;" vertex="1" parent="kboe6qkDD0sC6GHv3R7k-98">
          <mxGeometry x="160" y="50" width="60" height="80" as="geometry" />
        </mxCell>
        <mxCell id="kboe6qkDD0sC6GHv3R7k-104" value="&lt;font face=&quot;Nova Round&quot;&gt;&lt;b&gt;Master Hierarchy&lt;/b&gt;&lt;/font&gt;" style="shape=card;whiteSpace=wrap;html=1;strokeWidth=3;size=20;" vertex="1" parent="kboe6qkDD0sC6GHv3R7k-98">
          <mxGeometry x="230" y="50" width="60" height="80" as="geometry" />
        </mxCell>
        <mxCell id="kboe6qkDD0sC6GHv3R7k-105" value="&lt;font face=&quot;Nova Round&quot;&gt;&lt;b&gt;True Colours&lt;/b&gt;&lt;/font&gt;" style="shape=card;whiteSpace=wrap;html=1;strokeWidth=3;size=20;" vertex="1" parent="kboe6qkDD0sC6GHv3R7k-98">
          <mxGeometry x="20" y="140" width="60" height="80" as="geometry" />
        </mxCell>
        <mxCell id="kboe6qkDD0sC6GHv3R7k-106" value="&lt;font face=&quot;Nova Round&quot;&gt;&lt;b&gt;WFMS&lt;/b&gt;&lt;/font&gt;" style="shape=card;whiteSpace=wrap;html=1;strokeWidth=3;size=20;" vertex="1" parent="kboe6qkDD0sC6GHv3R7k-98">
          <mxGeometry x="230" y="140" width="60" height="80" as="geometry" />
        </mxCell>
        <mxCell id="kboe6qkDD0sC6GHv3R7k-107" value="&lt;font face=&quot;Nova Round&quot;&gt;&lt;b&gt;HR&lt;/b&gt;&lt;/font&gt;" style="shape=card;whiteSpace=wrap;html=1;strokeWidth=3;size=20;" vertex="1" parent="kboe6qkDD0sC6GHv3R7k-98">
          <mxGeometry x="90" y="140" width="60" height="80" as="geometry" />
        </mxCell>
        <mxCell id="kboe6qkDD0sC6GHv3R7k-108" value="&lt;font face=&quot;Nova Round&quot;&gt;&lt;b&gt;Waits Config&lt;/b&gt;&lt;/font&gt;" style="shape=card;whiteSpace=wrap;html=1;strokeWidth=3;size=20;" vertex="1" parent="kboe6qkDD0sC6GHv3R7k-98">
          <mxGeometry x="160" y="140" width="60" height="80" as="geometry" />
        </mxCell>
        <mxCell id="kboe6qkDD0sC6GHv3R7k-109" value="" style="group" vertex="1" connectable="0" parent="1">
          <mxGeometry x="1330" y="-1050" width="306" height="340" as="geometry" />
        </mxCell>
        <mxCell id="kboe6qkDD0sC6GHv3R7k-110" value="" style="rounded=1;whiteSpace=wrap;html=1;opacity=50;strokeWidth=3;arcSize=8;" vertex="1" parent="kboe6qkDD0sC6GHv3R7k-109">
          <mxGeometry width="306" height="340" as="geometry" />
        </mxCell>
        <mxCell id="kboe6qkDD0sC6GHv3R7k-111" value="Azure" style="text;html=1;align=center;verticalAlign=middle;whiteSpace=wrap;rounded=0;fontFamily=Nova Round;fontStyle=1;fontSize=22;textOpacity=50;textDirection=vertical-lr;" vertex="1" parent="kboe6qkDD0sC6GHv3R7k-109">
          <mxGeometry x="268" y="75" width="30" height="190" as="geometry" />
        </mxCell>
        <mxCell id="kboe6qkDD0sC6GHv3R7k-112" value="" style="endArrow=none;html=1;rounded=0;strokeWidth=3;opacity=50;" edge="1" parent="kboe6qkDD0sC6GHv3R7k-109">
          <mxGeometry width="50" height="50" relative="1" as="geometry">
            <mxPoint x="265" y="9" as="sourcePoint" />
            <mxPoint x="265" y="331" as="targetPoint" />
          </mxGeometry>
        </mxCell>
        <mxCell id="kboe6qkDD0sC6GHv3R7k-113" value="" style="rounded=1;whiteSpace=wrap;html=1;arcSize=10;strokeWidth=3;container=0;" vertex="1" parent="kboe6qkDD0sC6GHv3R7k-109">
          <mxGeometry x="35" y="30" width="213" height="280" as="geometry" />
        </mxCell>
        <mxCell id="kboe6qkDD0sC6GHv3R7k-114" value="" style="endArrow=classic;html=1;rounded=0;strokeWidth=3;" edge="1" parent="kboe6qkDD0sC6GHv3R7k-109">
          <mxGeometry width="50" height="50" relative="1" as="geometry">
            <mxPoint x="121" y="223" as="sourcePoint" />
            <mxPoint x="158" y="223" as="targetPoint" />
          </mxGeometry>
        </mxCell>
        <mxCell id="kboe6qkDD0sC6GHv3R7k-115" value="&lt;font face=&quot;Nova Round&quot;&gt;&lt;b&gt;Gen2 BLOB Storage&lt;/b&gt;&lt;/font&gt;" style="text;html=1;align=center;verticalAlign=middle;whiteSpace=wrap;rounded=0;container=0;" vertex="1" parent="kboe6qkDD0sC6GHv3R7k-109">
          <mxGeometry x="52.789999999999964" y="257" width="70" height="40" as="geometry" />
        </mxCell>
        <mxCell id="kboe6qkDD0sC6GHv3R7k-116" value="" style="group" vertex="1" connectable="0" parent="kboe6qkDD0sC6GHv3R7k-109">
          <mxGeometry x="58" y="195" width="60" height="55" as="geometry" />
        </mxCell>
        <mxCell id="kboe6qkDD0sC6GHv3R7k-117" value="" style="rounded=0;whiteSpace=wrap;html=1;strokeColor=none;fillColor=#CCCCCC;container=0;" vertex="1" parent="kboe6qkDD0sC6GHv3R7k-116">
          <mxGeometry x="37.2289156626506" width="5.060240963855422" height="18.333333333333336" as="geometry" />
        </mxCell>
        <mxCell id="kboe6qkDD0sC6GHv3R7k-118" value="" style="rounded=0;whiteSpace=wrap;html=1;strokeColor=none;fillColor=#CCCCCC;container=0;" vertex="1" parent="kboe6qkDD0sC6GHv3R7k-116">
          <mxGeometry x="1.0843373493975903" width="14.457831325301205" height="18.333333333333336" as="geometry" />
        </mxCell>
        <mxCell id="kboe6qkDD0sC6GHv3R7k-119" value="" style="rounded=0;whiteSpace=wrap;html=1;arcSize=20;fillColor=#4D4D4D;strokeColor=none;container=0;" vertex="1" parent="kboe6qkDD0sC6GHv3R7k-116">
          <mxGeometry x="15.542168674698795" width="21.686746987951807" height="18.333333333333336" as="geometry" />
        </mxCell>
        <mxCell id="kboe6qkDD0sC6GHv3R7k-120" value="" style="rounded=0;whiteSpace=wrap;html=1;arcSize=20;fillColor=#4D4D4D;container=0;" vertex="1" parent="kboe6qkDD0sC6GHv3R7k-116">
          <mxGeometry x="28.554216867469876" y="18.333333333333336" width="30.361445783132528" height="18.333333333333336" as="geometry" />
        </mxCell>
        <mxCell id="kboe6qkDD0sC6GHv3R7k-121" value="" style="rounded=1;whiteSpace=wrap;html=1;arcSize=20;fillColor=#CCCCCC;container=0;" vertex="1" parent="kboe6qkDD0sC6GHv3R7k-116">
          <mxGeometry x="1.0843373493975903" y="36.66666666666667" width="42.65060240963855" height="18.333333333333336" as="geometry" />
        </mxCell>
        <mxCell id="kboe6qkDD0sC6GHv3R7k-122" value="" style="endArrow=none;html=1;rounded=1;curved=0;strokeWidth=3;" edge="1" parent="kboe6qkDD0sC6GHv3R7k-116">
          <mxGeometry width="50" height="50" relative="1" as="geometry">
            <mxPoint x="58.91566265060241" as="sourcePoint" />
            <mxPoint x="1.0843373493975903" as="targetPoint" />
            <Array as="points">
              <mxPoint x="58.91566265060241" y="55" />
              <mxPoint x="1.0843373493975903" y="55" />
            </Array>
          </mxGeometry>
        </mxCell>
        <mxCell id="kboe6qkDD0sC6GHv3R7k-123" value="" style="endArrow=none;html=1;rounded=0;strokeWidth=3;" edge="1" parent="kboe6qkDD0sC6GHv3R7k-116">
          <mxGeometry width="50" height="50" relative="1" as="geometry">
            <mxPoint x="1.0843373493975903" y="36.66666666666667" as="sourcePoint" />
            <mxPoint x="58.91566265060241" y="36.66666666666667" as="targetPoint" />
          </mxGeometry>
        </mxCell>
        <mxCell id="kboe6qkDD0sC6GHv3R7k-124" value="" style="endArrow=none;html=1;rounded=0;strokeWidth=3;" edge="1" parent="kboe6qkDD0sC6GHv3R7k-116">
          <mxGeometry width="50" height="50" relative="1" as="geometry">
            <mxPoint x="1.0843373493975903" y="18.333333333333336" as="sourcePoint" />
            <mxPoint x="58.91566265060241" y="18.333333333333336" as="targetPoint" />
          </mxGeometry>
        </mxCell>
        <mxCell id="kboe6qkDD0sC6GHv3R7k-125" value="" style="endArrow=none;html=1;rounded=0;strokeWidth=3;" edge="1" parent="kboe6qkDD0sC6GHv3R7k-116">
          <mxGeometry width="50" height="50" relative="1" as="geometry">
            <mxPoint x="15.542168674698795" y="18.333333333333336" as="sourcePoint" />
            <mxPoint x="15.542168674698795" as="targetPoint" />
          </mxGeometry>
        </mxCell>
        <mxCell id="kboe6qkDD0sC6GHv3R7k-126" value="" style="endArrow=none;html=1;rounded=0;strokeWidth=3;" edge="1" parent="kboe6qkDD0sC6GHv3R7k-116">
          <mxGeometry width="50" height="50" relative="1" as="geometry">
            <mxPoint x="37.2289156626506" y="18.333333333333336" as="sourcePoint" />
            <mxPoint x="37.2289156626506" as="targetPoint" />
          </mxGeometry>
        </mxCell>
        <mxCell id="kboe6qkDD0sC6GHv3R7k-127" value="" style="endArrow=none;html=1;rounded=0;strokeWidth=3;" edge="1" parent="kboe6qkDD0sC6GHv3R7k-116">
          <mxGeometry width="50" height="50" relative="1" as="geometry">
            <mxPoint x="42.28915662650602" y="18.333333333333336" as="sourcePoint" />
            <mxPoint x="42.28915662650602" as="targetPoint" />
          </mxGeometry>
        </mxCell>
        <mxCell id="kboe6qkDD0sC6GHv3R7k-128" value="" style="endArrow=none;html=1;rounded=0;strokeWidth=3;" edge="1" parent="kboe6qkDD0sC6GHv3R7k-116">
          <mxGeometry width="50" height="50" relative="1" as="geometry">
            <mxPoint x="29.27710843373494" y="36.66666666666667" as="sourcePoint" />
            <mxPoint x="29.27710843373494" y="18.333333333333336" as="targetPoint" />
          </mxGeometry>
        </mxCell>
        <mxCell id="kboe6qkDD0sC6GHv3R7k-129" value="" style="endArrow=none;html=1;rounded=0;strokeWidth=3;" edge="1" parent="kboe6qkDD0sC6GHv3R7k-116">
          <mxGeometry width="50" height="50" relative="1" as="geometry">
            <mxPoint x="43.01204819277109" y="54.38888888888889" as="sourcePoint" />
            <mxPoint x="43.01204819277109" y="36.05555555555556" as="targetPoint" />
          </mxGeometry>
        </mxCell>
        <mxCell id="kboe6qkDD0sC6GHv3R7k-130" value="" style="endArrow=none;html=1;rounded=0;strokeWidth=2;" edge="1" parent="kboe6qkDD0sC6GHv3R7k-116">
          <mxGeometry width="50" height="50" relative="1" as="geometry">
            <mxPoint y="0.3055555555555555" as="sourcePoint" />
            <mxPoint x="60" y="0.3055555555555555" as="targetPoint" />
          </mxGeometry>
        </mxCell>
        <mxCell id="kboe6qkDD0sC6GHv3R7k-131" value="" style="group" vertex="1" connectable="0" parent="kboe6qkDD0sC6GHv3R7k-109">
          <mxGeometry x="160" y="190" width="78" height="120" as="geometry" />
        </mxCell>
        <mxCell id="kboe6qkDD0sC6GHv3R7k-132" value="" style="sketch=0;outlineConnect=0;fontColor=#232F3E;gradientColor=none;fillColor=#000000;strokeColor=none;dashed=0;verticalLabelPosition=bottom;verticalAlign=top;align=center;html=1;fontSize=12;fontStyle=0;aspect=fixed;pointerEvents=1;shape=mxgraph.aws4.mq_broker;" vertex="1" parent="kboe6qkDD0sC6GHv3R7k-131">
          <mxGeometry width="78" height="69" as="geometry" />
        </mxCell>
        <mxCell id="kboe6qkDD0sC6GHv3R7k-133" value="&lt;font face=&quot;Nova Round&quot;&gt;&lt;b&gt;Integration&lt;/b&gt;&lt;/font&gt;&lt;div&gt;&lt;font face=&quot;Nova Round&quot;&gt;&lt;b&gt;Engine&lt;/b&gt;&lt;/font&gt;&lt;/div&gt;" style="text;html=1;align=center;verticalAlign=middle;whiteSpace=wrap;rounded=0;" vertex="1" parent="kboe6qkDD0sC6GHv3R7k-131">
          <mxGeometry x="4" y="70" width="70" height="50" as="geometry" />
        </mxCell>
        <mxCell id="kboe6qkDD0sC6GHv3R7k-134" value="&lt;font face=&quot;Nova Round&quot;&gt;&lt;b&gt;IE&lt;/b&gt;&lt;/font&gt;&lt;div&gt;&lt;font face=&quot;Nova Round&quot;&gt;&lt;b&gt;DW&lt;/b&gt;&lt;/font&gt;&lt;/div&gt;" style="shape=cylinder3;whiteSpace=wrap;html=1;boundedLbl=1;backgroundOutline=1;size=15;strokeWidth=3;" vertex="1" parent="kboe6qkDD0sC6GHv3R7k-109">
          <mxGeometry x="58" y="90" width="60" height="80" as="geometry" />
        </mxCell>
        <mxCell id="kboe6qkDD0sC6GHv3R7k-135" value="" style="endArrow=classic;html=1;rounded=1;strokeWidth=3;strokeColor=default;curved=0;" edge="1" parent="kboe6qkDD0sC6GHv3R7k-109">
          <mxGeometry width="50" height="50" relative="1" as="geometry">
            <mxPoint x="124.78999999999996" y="143" as="sourcePoint" />
            <mxPoint x="197.78999999999996" y="183" as="targetPoint" />
            <Array as="points">
              <mxPoint x="197.78999999999996" y="143" />
            </Array>
          </mxGeometry>
        </mxCell>
        <mxCell id="kboe6qkDD0sC6GHv3R7k-136" value="mhoxiedblive01" style="text;html=1;align=center;verticalAlign=middle;whiteSpace=wrap;rounded=0;fontFamily=Nova Round;fontSize=21;fontStyle=1;container=0;" vertex="1" parent="kboe6qkDD0sC6GHv3R7k-109">
          <mxGeometry x="45" y="40" width="193" height="30" as="geometry" />
        </mxCell>
        <mxCell id="kboe6qkDD0sC6GHv3R7k-137" value="" style="rounded=1;whiteSpace=wrap;html=1;opacity=50;strokeWidth=3;arcSize=8;" vertex="1" parent="1">
          <mxGeometry x="1330" y="-700" width="306" height="240" as="geometry" />
        </mxCell>
        <mxCell id="kboe6qkDD0sC6GHv3R7k-138" value="" style="group" vertex="1" connectable="0" parent="1">
          <mxGeometry x="1370" y="-680" width="213" height="200" as="geometry" />
        </mxCell>
        <mxCell id="kboe6qkDD0sC6GHv3R7k-139" value="" style="rounded=1;whiteSpace=wrap;html=1;arcSize=10;strokeWidth=3;container=0;" vertex="1" parent="kboe6qkDD0sC6GHv3R7k-138">
          <mxGeometry width="213" height="200" as="geometry" />
        </mxCell>
        <mxCell id="kboe6qkDD0sC6GHv3R7k-140" value="DBS / Spine&amp;nbsp;" style="text;html=1;align=center;verticalAlign=middle;whiteSpace=wrap;rounded=0;fontFamily=Nova Round;fontSize=21;fontStyle=1;container=0;" vertex="1" parent="kboe6qkDD0sC6GHv3R7k-138">
          <mxGeometry x="10" y="10" width="193" height="30" as="geometry" />
        </mxCell>
        <mxCell id="kboe6qkDD0sC6GHv3R7k-141" value="" style="group" vertex="1" connectable="0" parent="kboe6qkDD0sC6GHv3R7k-138">
          <mxGeometry x="74" y="75" width="60" height="55" as="geometry" />
        </mxCell>
        <mxCell id="kboe6qkDD0sC6GHv3R7k-142" value="" style="rounded=0;whiteSpace=wrap;html=1;strokeColor=none;fillColor=#CCCCCC;container=0;" vertex="1" parent="kboe6qkDD0sC6GHv3R7k-141">
          <mxGeometry x="37.2289156626506" width="5.060240963855422" height="18.333333333333336" as="geometry" />
        </mxCell>
        <mxCell id="kboe6qkDD0sC6GHv3R7k-143" value="" style="rounded=0;whiteSpace=wrap;html=1;strokeColor=none;fillColor=#CCCCCC;container=0;" vertex="1" parent="kboe6qkDD0sC6GHv3R7k-141">
          <mxGeometry x="1.0843373493975903" width="14.457831325301205" height="18.333333333333336" as="geometry" />
        </mxCell>
        <mxCell id="kboe6qkDD0sC6GHv3R7k-144" value="" style="rounded=0;whiteSpace=wrap;html=1;arcSize=20;fillColor=#4D4D4D;strokeColor=none;container=0;" vertex="1" parent="kboe6qkDD0sC6GHv3R7k-141">
          <mxGeometry x="15.542168674698795" width="21.686746987951807" height="18.333333333333336" as="geometry" />
        </mxCell>
        <mxCell id="kboe6qkDD0sC6GHv3R7k-145" value="" style="rounded=0;whiteSpace=wrap;html=1;arcSize=20;fillColor=#4D4D4D;container=0;" vertex="1" parent="kboe6qkDD0sC6GHv3R7k-141">
          <mxGeometry x="28.554216867469876" y="18.333333333333336" width="30.361445783132528" height="18.333333333333336" as="geometry" />
        </mxCell>
        <mxCell id="kboe6qkDD0sC6GHv3R7k-146" value="" style="rounded=1;whiteSpace=wrap;html=1;arcSize=20;fillColor=#CCCCCC;container=0;" vertex="1" parent="kboe6qkDD0sC6GHv3R7k-141">
          <mxGeometry x="1.0843373493975903" y="36.66666666666667" width="42.65060240963855" height="18.333333333333336" as="geometry" />
        </mxCell>
        <mxCell id="kboe6qkDD0sC6GHv3R7k-147" value="" style="endArrow=none;html=1;rounded=1;curved=0;strokeWidth=3;" edge="1" parent="kboe6qkDD0sC6GHv3R7k-141">
          <mxGeometry width="50" height="50" relative="1" as="geometry">
            <mxPoint x="58.91566265060241" as="sourcePoint" />
            <mxPoint x="1.0843373493975903" as="targetPoint" />
            <Array as="points">
              <mxPoint x="58.91566265060241" y="55" />
              <mxPoint x="1.0843373493975903" y="55" />
            </Array>
          </mxGeometry>
        </mxCell>
        <mxCell id="kboe6qkDD0sC6GHv3R7k-148" value="" style="endArrow=none;html=1;rounded=0;strokeWidth=3;" edge="1" parent="kboe6qkDD0sC6GHv3R7k-141">
          <mxGeometry width="50" height="50" relative="1" as="geometry">
            <mxPoint x="1.0843373493975903" y="36.66666666666667" as="sourcePoint" />
            <mxPoint x="58.91566265060241" y="36.66666666666667" as="targetPoint" />
          </mxGeometry>
        </mxCell>
        <mxCell id="kboe6qkDD0sC6GHv3R7k-149" value="" style="endArrow=none;html=1;rounded=0;strokeWidth=3;" edge="1" parent="kboe6qkDD0sC6GHv3R7k-141">
          <mxGeometry width="50" height="50" relative="1" as="geometry">
            <mxPoint x="1.0843373493975903" y="18.333333333333336" as="sourcePoint" />
            <mxPoint x="58.91566265060241" y="18.333333333333336" as="targetPoint" />
          </mxGeometry>
        </mxCell>
        <mxCell id="kboe6qkDD0sC6GHv3R7k-150" value="" style="endArrow=none;html=1;rounded=0;strokeWidth=3;" edge="1" parent="kboe6qkDD0sC6GHv3R7k-141">
          <mxGeometry width="50" height="50" relative="1" as="geometry">
            <mxPoint x="15.542168674698795" y="18.333333333333336" as="sourcePoint" />
            <mxPoint x="15.542168674698795" as="targetPoint" />
          </mxGeometry>
        </mxCell>
        <mxCell id="kboe6qkDD0sC6GHv3R7k-151" value="" style="endArrow=none;html=1;rounded=0;strokeWidth=3;" edge="1" parent="kboe6qkDD0sC6GHv3R7k-141">
          <mxGeometry width="50" height="50" relative="1" as="geometry">
            <mxPoint x="37.2289156626506" y="18.333333333333336" as="sourcePoint" />
            <mxPoint x="37.2289156626506" as="targetPoint" />
          </mxGeometry>
        </mxCell>
        <mxCell id="kboe6qkDD0sC6GHv3R7k-152" value="" style="endArrow=none;html=1;rounded=0;strokeWidth=3;" edge="1" parent="kboe6qkDD0sC6GHv3R7k-141">
          <mxGeometry width="50" height="50" relative="1" as="geometry">
            <mxPoint x="42.28915662650602" y="18.333333333333336" as="sourcePoint" />
            <mxPoint x="42.28915662650602" as="targetPoint" />
          </mxGeometry>
        </mxCell>
        <mxCell id="kboe6qkDD0sC6GHv3R7k-153" value="" style="endArrow=none;html=1;rounded=0;strokeWidth=3;" edge="1" parent="kboe6qkDD0sC6GHv3R7k-141">
          <mxGeometry width="50" height="50" relative="1" as="geometry">
            <mxPoint x="29.27710843373494" y="36.66666666666667" as="sourcePoint" />
            <mxPoint x="29.27710843373494" y="18.333333333333336" as="targetPoint" />
          </mxGeometry>
        </mxCell>
        <mxCell id="kboe6qkDD0sC6GHv3R7k-154" value="" style="endArrow=none;html=1;rounded=0;strokeWidth=3;" edge="1" parent="kboe6qkDD0sC6GHv3R7k-141">
          <mxGeometry width="50" height="50" relative="1" as="geometry">
            <mxPoint x="43.01204819277109" y="54.38888888888889" as="sourcePoint" />
            <mxPoint x="43.01204819277109" y="36.05555555555556" as="targetPoint" />
          </mxGeometry>
        </mxCell>
        <mxCell id="kboe6qkDD0sC6GHv3R7k-155" value="" style="endArrow=none;html=1;rounded=0;strokeWidth=2;" edge="1" parent="kboe6qkDD0sC6GHv3R7k-141">
          <mxGeometry width="50" height="50" relative="1" as="geometry">
            <mxPoint y="0.3055555555555555" as="sourcePoint" />
            <mxPoint x="60" y="0.3055555555555555" as="targetPoint" />
          </mxGeometry>
        </mxCell>
        <mxCell id="kboe6qkDD0sC6GHv3R7k-156" value="NHS Digital" style="text;html=1;align=center;verticalAlign=middle;whiteSpace=wrap;rounded=0;fontFamily=Nova Round;fontStyle=1;fontSize=22;textOpacity=50;textDirection=vertical-lr;" vertex="1" parent="1">
          <mxGeometry x="1595" y="-675" width="30" height="190" as="geometry" />
        </mxCell>
        <mxCell id="kboe6qkDD0sC6GHv3R7k-157" value="" style="endArrow=none;html=1;rounded=0;strokeWidth=3;opacity=50;" edge="1" parent="1">
          <mxGeometry width="50" height="50" relative="1" as="geometry">
            <mxPoint x="1593.67" y="-689.5" as="sourcePoint" />
            <mxPoint x="1593.67" y="-470.5" as="targetPoint" />
          </mxGeometry>
        </mxCell>
        <mxCell id="kboe6qkDD0sC6GHv3R7k-158" value="" style="endArrow=classic;html=1;rounded=1;strokeWidth=3;curved=0;" edge="1" parent="1">
          <mxGeometry width="50" height="50" relative="1" as="geometry">
            <mxPoint x="860" y="-520" as="sourcePoint" />
            <mxPoint x="1360" y="-580" as="targetPoint" />
            <Array as="points">
              <mxPoint x="860" y="-580" />
            </Array>
          </mxGeometry>
        </mxCell>
        <mxCell id="kboe6qkDD0sC6GHv3R7k-159" value="" style="endArrow=classic;html=1;rounded=1;strokeWidth=3;curved=0;" edge="1" parent="1">
          <mxGeometry width="50" height="50" relative="1" as="geometry">
            <mxPoint x="800" y="-520" as="sourcePoint" />
            <mxPoint x="1310" y="-880" as="targetPoint" />
            <Array as="points">
              <mxPoint x="800" y="-880" />
            </Array>
          </mxGeometry>
        </mxCell>
        <mxCell id="kboe6qkDD0sC6GHv3R7k-160" value="" style="endArrow=classic;html=1;rounded=1;strokeWidth=3;curved=0;exitX=0.983;exitY=0.443;exitDx=0;exitDy=0;exitPerimeter=0;" edge="1" parent="1" source="kboe6qkDD0sC6GHv3R7k-78">
          <mxGeometry width="50" height="50" relative="1" as="geometry">
            <mxPoint x="260" y="-348.4" as="sourcePoint" />
            <mxPoint x="1308" y="-1000" as="targetPoint" />
            <Array as="points">
              <mxPoint x="260" y="-349" />
              <mxPoint x="260" y="-1000" />
            </Array>
          </mxGeometry>
        </mxCell>
        <mxCell id="kboe6qkDD0sC6GHv3R7k-161" value="" style="endArrow=classic;html=1;rounded=1;strokeWidth=3;curved=0;" edge="1" parent="1">
          <mxGeometry width="50" height="50" relative="1" as="geometry">
            <mxPoint x="252" y="-270" as="sourcePoint" />
            <mxPoint x="1310" y="-960" as="targetPoint" />
            <Array as="points">
              <mxPoint x="282" y="-270" />
              <mxPoint x="282" y="-960" />
            </Array>
          </mxGeometry>
        </mxCell>
        <mxCell id="kboe6qkDD0sC6GHv3R7k-162" value="&lt;font face=&quot;Nova Round&quot;&gt;&lt;b&gt;ePMA&lt;/b&gt;&lt;/font&gt;" style="shape=cylinder3;whiteSpace=wrap;html=1;boundedLbl=1;backgroundOutline=1;size=15;strokeWidth=3;" vertex="1" parent="1">
          <mxGeometry x="48" y="-298" width="60" height="80" as="geometry" />
        </mxCell>
        <mxCell id="kboe6qkDD0sC6GHv3R7k-163" value="&lt;font face=&quot;Nova Round&quot;&gt;&lt;b&gt;POC/&lt;/b&gt;&lt;/font&gt;&lt;div&gt;&lt;font face=&quot;Nova Round&quot;&gt;&lt;b&gt;AQURE&lt;/b&gt;&lt;/font&gt;&lt;/div&gt;" style="shape=cylinder3;whiteSpace=wrap;html=1;boundedLbl=1;backgroundOutline=1;size=15;strokeWidth=3;" vertex="1" parent="1">
          <mxGeometry x="119" y="-210" width="60" height="80" as="geometry" />
        </mxCell>
        <mxCell id="kboe6qkDD0sC6GHv3R7k-164" value="" style="endArrow=none;html=1;rounded=1;strokeWidth=3;endFill=0;curved=0;" edge="1" parent="1">
          <mxGeometry width="50" height="50" relative="1" as="geometry">
            <mxPoint x="48" y="-250" as="sourcePoint" />
            <mxPoint x="-80" y="-280" as="targetPoint" />
            <Array as="points">
              <mxPoint x="-80" y="-250" />
            </Array>
          </mxGeometry>
        </mxCell>
        <mxCell id="kboe6qkDD0sC6GHv3R7k-165" value="" style="endArrow=none;html=1;rounded=1;strokeWidth=3;curved=0;endFill=0;" edge="1" parent="1">
          <mxGeometry width="50" height="50" relative="1" as="geometry">
            <mxPoint x="150" y="-129" as="sourcePoint" />
            <mxPoint x="-80" y="-140" as="targetPoint" />
            <Array as="points">
              <mxPoint x="150" y="-110" />
              <mxPoint x="-80" y="-110" />
            </Array>
          </mxGeometry>
        </mxCell>
        <mxCell id="kboe6qkDD0sC6GHv3R7k-166" value="" style="endArrow=classic;html=1;rounded=1;strokeWidth=3;curved=0;" edge="1" parent="1">
          <mxGeometry width="50" height="50" relative="1" as="geometry">
            <mxPoint x="-80" y="-120" as="sourcePoint" />
            <mxPoint x="1310" y="-1040" as="targetPoint" />
            <Array as="points">
              <mxPoint x="-80" y="-1040" />
            </Array>
          </mxGeometry>
        </mxCell>
        <mxCell id="kboe6qkDD0sC6GHv3R7k-167" value="" style="group" vertex="1" connectable="0" parent="1">
          <mxGeometry x="1815" y="-1050" width="310" height="399" as="geometry" />
        </mxCell>
        <mxCell id="kboe6qkDD0sC6GHv3R7k-168" value="" style="rounded=1;whiteSpace=wrap;html=1;strokeWidth=3;arcSize=10;" vertex="1" parent="kboe6qkDD0sC6GHv3R7k-167">
          <mxGeometry width="310" height="399" as="geometry" />
        </mxCell>
        <mxCell id="kboe6qkDD0sC6GHv3R7k-169" value="Target Systems" style="text;html=1;align=center;verticalAlign=middle;whiteSpace=wrap;rounded=0;fontFamily=Nova Round;fontSize=16;fontStyle=1" vertex="1" parent="kboe6qkDD0sC6GHv3R7k-167">
          <mxGeometry x="29" width="240" height="50" as="geometry" />
        </mxCell>
        <mxCell id="kboe6qkDD0sC6GHv3R7k-170" value="&lt;font face=&quot;Nova Round&quot;&gt;&lt;b&gt;ePMA&lt;/b&gt;&lt;/font&gt;" style="shape=cylinder3;whiteSpace=wrap;html=1;boundedLbl=1;backgroundOutline=1;size=15;strokeWidth=3;" vertex="1" parent="kboe6qkDD0sC6GHv3R7k-167">
          <mxGeometry x="48" y="56" width="60" height="80" as="geometry" />
        </mxCell>
        <mxCell id="kboe6qkDD0sC6GHv3R7k-171" value="&lt;font face=&quot;Nova Round&quot;&gt;&lt;b&gt;True&lt;/b&gt;&lt;/font&gt;&lt;div&gt;&lt;font face=&quot;Nova Round&quot;&gt;&lt;b&gt;colours&lt;/b&gt;&lt;/font&gt;&lt;/div&gt;" style="shape=cylinder3;whiteSpace=wrap;html=1;boundedLbl=1;backgroundOutline=1;size=15;strokeWidth=3;" vertex="1" parent="kboe6qkDD0sC6GHv3R7k-167">
          <mxGeometry x="192" y="56" width="60" height="80" as="geometry" />
        </mxCell>
        <mxCell id="kboe6qkDD0sC6GHv3R7k-172" value="&lt;font face=&quot;Nova Round&quot;&gt;&lt;b&gt;CHIS&lt;/b&gt;&lt;/font&gt;" style="shape=cylinder3;whiteSpace=wrap;html=1;boundedLbl=1;backgroundOutline=1;size=15;strokeWidth=3;" vertex="1" parent="kboe6qkDD0sC6GHv3R7k-167">
          <mxGeometry x="158" y="136" width="60" height="80" as="geometry" />
        </mxCell>
        <mxCell id="kboe6qkDD0sC6GHv3R7k-173" value="&lt;font face=&quot;Nova Round&quot;&gt;&lt;b&gt;Ascribe&lt;/b&gt;&lt;/font&gt;" style="shape=cylinder3;whiteSpace=wrap;html=1;boundedLbl=1;backgroundOutline=1;size=15;strokeWidth=3;" vertex="1" parent="kboe6qkDD0sC6GHv3R7k-167">
          <mxGeometry x="119" y="56" width="60" height="80" as="geometry" />
        </mxCell>
        <mxCell id="kboe6qkDD0sC6GHv3R7k-174" value="&lt;font face=&quot;Nova Round&quot;&gt;&lt;b&gt;POC/&lt;/b&gt;&lt;/font&gt;&lt;div&gt;&lt;font face=&quot;Nova Round&quot;&gt;&lt;b&gt;AQURE&lt;/b&gt;&lt;/font&gt;&lt;/div&gt;" style="shape=cylinder3;whiteSpace=wrap;html=1;boundedLbl=1;backgroundOutline=1;size=15;strokeWidth=3;" vertex="1" parent="kboe6qkDD0sC6GHv3R7k-167">
          <mxGeometry x="83" y="136" width="60" height="80" as="geometry" />
        </mxCell>
        <mxCell id="kboe6qkDD0sC6GHv3R7k-175" value="&lt;font face=&quot;Nova Round&quot;&gt;&lt;b&gt;ICS&amp;nbsp;&lt;/b&gt;&lt;/font&gt;&lt;div&gt;&lt;font face=&quot;Nova Round&quot;&gt;&lt;b&gt;- TVS&lt;/b&gt;&lt;/font&gt;&lt;/div&gt;" style="shape=cylinder3;whiteSpace=wrap;html=1;boundedLbl=1;backgroundOutline=1;size=15;strokeWidth=3;" vertex="1" parent="kboe6qkDD0sC6GHv3R7k-167">
          <mxGeometry x="48" y="216" width="60" height="80" as="geometry" />
        </mxCell>
        <mxCell id="kboe6qkDD0sC6GHv3R7k-176" value="&lt;font face=&quot;Nova Round&quot;&gt;&lt;b&gt;ICE&lt;/b&gt;&lt;/font&gt;" style="shape=cylinder3;whiteSpace=wrap;html=1;boundedLbl=1;backgroundOutline=1;size=15;strokeWidth=3;" vertex="1" parent="kboe6qkDD0sC6GHv3R7k-167">
          <mxGeometry x="192" y="216" width="60" height="80" as="geometry" />
        </mxCell>
        <mxCell id="kboe6qkDD0sC6GHv3R7k-177" value="&lt;font face=&quot;Nova Round&quot;&gt;&lt;b&gt;Docman&lt;/b&gt;&lt;/font&gt;" style="shape=cylinder3;whiteSpace=wrap;html=1;boundedLbl=1;backgroundOutline=1;size=15;strokeWidth=3;" vertex="1" parent="kboe6qkDD0sC6GHv3R7k-167">
          <mxGeometry x="158" y="296" width="60" height="80" as="geometry" />
        </mxCell>
        <mxCell id="kboe6qkDD0sC6GHv3R7k-178" value="&lt;font face=&quot;Nova Round&quot;&gt;&lt;b&gt;ICS&amp;nbsp;&lt;/b&gt;&lt;/font&gt;&lt;div&gt;&lt;font face=&quot;Nova Round&quot;&gt;&lt;b&gt;- BSW&lt;/b&gt;&lt;/font&gt;&lt;/div&gt;" style="shape=cylinder3;whiteSpace=wrap;html=1;boundedLbl=1;backgroundOutline=1;size=15;strokeWidth=3;" vertex="1" parent="kboe6qkDD0sC6GHv3R7k-167">
          <mxGeometry x="119" y="216" width="60" height="80" as="geometry" />
        </mxCell>
        <mxCell id="kboe6qkDD0sC6GHv3R7k-179" value="&lt;font face=&quot;Nova Round&quot;&gt;&lt;b&gt;HV&lt;/b&gt;&lt;/font&gt;&lt;div&gt;&lt;font face=&quot;Nova Round&quot;&gt;&lt;b&gt;Teams&lt;/b&gt;&lt;/font&gt;&lt;/div&gt;" style="shape=cylinder3;whiteSpace=wrap;html=1;boundedLbl=1;backgroundOutline=1;size=15;strokeWidth=3;" vertex="1" parent="kboe6qkDD0sC6GHv3R7k-167">
          <mxGeometry x="83" y="296" width="60" height="80" as="geometry" />
        </mxCell>
        <mxCell id="kboe6qkDD0sC6GHv3R7k-180" value="" style="endArrow=classic;html=1;rounded=0;strokeWidth=3;" edge="1" parent="1">
          <mxGeometry width="50" height="50" relative="1" as="geometry">
            <mxPoint x="1650" y="-940" as="sourcePoint" />
            <mxPoint x="1790" y="-940" as="targetPoint" />
          </mxGeometry>
        </mxCell>
        <mxCell id="kboe6qkDD0sC6GHv3R7k-181" value="" style="endArrow=classic;html=1;rounded=1;strokeWidth=3;curved=0;" edge="1" parent="1">
          <mxGeometry width="50" height="50" relative="1" as="geometry">
            <mxPoint x="500" y="-520" as="sourcePoint" />
            <mxPoint x="1310" y="-920" as="targetPoint" />
            <Array as="points">
              <mxPoint x="500" y="-920" />
            </Array>
          </mxGeometry>
        </mxCell>
        <mxCell id="kboe6qkDD0sC6GHv3R7k-182" value="" style="endArrow=none;html=1;rounded=0;strokeWidth=3;opacity=50;" edge="1" parent="1">
          <mxGeometry width="50" height="50" relative="1" as="geometry">
            <mxPoint x="429" y="-707.82" as="sourcePoint" />
            <mxPoint x="1249" y="-707.82" as="targetPoint" />
          </mxGeometry>
        </mxCell>
        <mxCell id="kboe6qkDD0sC6GHv3R7k-183" value="On Premises Data Centre" style="text;html=1;align=center;verticalAlign=middle;whiteSpace=wrap;rounded=0;fontFamily=Nova Round;fontStyle=1;fontSize=22;textOpacity=50;" vertex="1" parent="1">
          <mxGeometry x="434" y="-746.82" width="810" height="30" as="geometry" />
        </mxCell>
        <mxCell id="kboe6qkDD0sC6GHv3R7k-184" value="" style="group" vertex="1" connectable="0" parent="1">
          <mxGeometry x="535" y="-150" width="315" height="200" as="geometry" />
        </mxCell>
        <mxCell id="kboe6qkDD0sC6GHv3R7k-185" value="" style="rounded=1;whiteSpace=wrap;html=1;strokeWidth=3;" vertex="1" parent="kboe6qkDD0sC6GHv3R7k-184">
          <mxGeometry width="315" height="200" as="geometry" />
        </mxCell>
        <mxCell id="kboe6qkDD0sC6GHv3R7k-186" value="" style="rounded=1;whiteSpace=wrap;html=1;strokeWidth=3;" vertex="1" parent="kboe6qkDD0sC6GHv3R7k-184">
          <mxGeometry x="115" y="46" width="90" height="144" as="geometry" />
        </mxCell>
        <mxCell id="kboe6qkDD0sC6GHv3R7k-187" value="" style="group" vertex="1" connectable="0" parent="kboe6qkDD0sC6GHv3R7k-184">
          <mxGeometry x="128" y="58" width="64" height="120" as="geometry" />
        </mxCell>
        <mxCell id="kboe6qkDD0sC6GHv3R7k-188" value="" style="group" vertex="1" connectable="0" parent="kboe6qkDD0sC6GHv3R7k-187">
          <mxGeometry width="64" height="80" as="geometry" />
        </mxCell>
        <mxCell id="kboe6qkDD0sC6GHv3R7k-189" value="" style="shape=cylinder3;whiteSpace=wrap;html=1;boundedLbl=1;backgroundOutline=1;size=15;strokeWidth=3;" vertex="1" parent="kboe6qkDD0sC6GHv3R7k-188">
          <mxGeometry width="48" height="64" as="geometry" />
        </mxCell>
        <mxCell id="kboe6qkDD0sC6GHv3R7k-190" value="" style="shape=cylinder3;whiteSpace=wrap;html=1;boundedLbl=1;backgroundOutline=1;size=15;strokeWidth=3;" vertex="1" parent="kboe6qkDD0sC6GHv3R7k-188">
          <mxGeometry x="8" y="8" width="48" height="64" as="geometry" />
        </mxCell>
        <mxCell id="kboe6qkDD0sC6GHv3R7k-191" value="" style="shape=cylinder3;whiteSpace=wrap;html=1;boundedLbl=1;backgroundOutline=1;size=15;strokeWidth=3;" vertex="1" parent="kboe6qkDD0sC6GHv3R7k-188">
          <mxGeometry x="16" y="16" width="48" height="64" as="geometry" />
        </mxCell>
        <mxCell id="kboe6qkDD0sC6GHv3R7k-192" value="CP1PL-SRC1" style="text;align=center;verticalAlign=middle;whiteSpace=wrap;rounded=0;fontFamily=Nova Round;fontStyle=1" vertex="1" parent="kboe6qkDD0sC6GHv3R7k-187">
          <mxGeometry x="2" y="90" width="60" height="30" as="geometry" />
        </mxCell>
        <mxCell id="kboe6qkDD0sC6GHv3R7k-193" value="" style="rounded=1;whiteSpace=wrap;html=1;strokeWidth=3;" vertex="1" parent="kboe6qkDD0sC6GHv3R7k-184">
          <mxGeometry x="215" y="46" width="90" height="144" as="geometry" />
        </mxCell>
        <mxCell id="kboe6qkDD0sC6GHv3R7k-194" value="" style="group" vertex="1" connectable="0" parent="kboe6qkDD0sC6GHv3R7k-184">
          <mxGeometry x="228" y="58" width="64" height="120" as="geometry" />
        </mxCell>
        <mxCell id="kboe6qkDD0sC6GHv3R7k-195" value="" style="group" vertex="1" connectable="0" parent="kboe6qkDD0sC6GHv3R7k-194">
          <mxGeometry width="64" height="80" as="geometry" />
        </mxCell>
        <mxCell id="kboe6qkDD0sC6GHv3R7k-196" value="" style="shape=cylinder3;whiteSpace=wrap;html=1;boundedLbl=1;backgroundOutline=1;size=15;strokeWidth=3;" vertex="1" parent="kboe6qkDD0sC6GHv3R7k-195">
          <mxGeometry width="48" height="64" as="geometry" />
        </mxCell>
        <mxCell id="kboe6qkDD0sC6GHv3R7k-197" value="" style="shape=cylinder3;whiteSpace=wrap;html=1;boundedLbl=1;backgroundOutline=1;size=15;strokeWidth=3;" vertex="1" parent="kboe6qkDD0sC6GHv3R7k-195">
          <mxGeometry x="8" y="8" width="48" height="64" as="geometry" />
        </mxCell>
        <mxCell id="kboe6qkDD0sC6GHv3R7k-198" value="" style="shape=cylinder3;whiteSpace=wrap;html=1;boundedLbl=1;backgroundOutline=1;size=15;strokeWidth=3;" vertex="1" parent="kboe6qkDD0sC6GHv3R7k-195">
          <mxGeometry x="16" y="16" width="48" height="64" as="geometry" />
        </mxCell>
        <mxCell id="kboe6qkDD0sC6GHv3R7k-199" value="CP2PL-SRC2" style="text;align=center;verticalAlign=middle;whiteSpace=wrap;rounded=0;fontFamily=Nova Round;fontStyle=1" vertex="1" parent="kboe6qkDD0sC6GHv3R7k-194">
          <mxGeometry x="2" y="90" width="60" height="30" as="geometry" />
        </mxCell>
        <mxCell id="kboe6qkDD0sC6GHv3R7k-200" value="Log Ship Servers" style="text;html=1;align=center;verticalAlign=middle;whiteSpace=wrap;rounded=0;fontFamily=Nova Round;fontSize=22;fontStyle=1" vertex="1" parent="kboe6qkDD0sC6GHv3R7k-184">
          <mxGeometry x="115" y="10" width="190" height="30" as="geometry" />
        </mxCell>
        <mxCell id="kboe6qkDD0sC6GHv3R7k-201" value="" style="rounded=1;whiteSpace=wrap;html=1;strokeWidth=3;" vertex="1" parent="kboe6qkDD0sC6GHv3R7k-184">
          <mxGeometry x="10" y="46" width="90" height="144" as="geometry" />
        </mxCell>
        <mxCell id="kboe6qkDD0sC6GHv3R7k-202" value="" style="group" vertex="1" connectable="0" parent="kboe6qkDD0sC6GHv3R7k-184">
          <mxGeometry x="23" y="60" width="64" height="120" as="geometry" />
        </mxCell>
        <mxCell id="kboe6qkDD0sC6GHv3R7k-203" value="" style="group" vertex="1" connectable="0" parent="kboe6qkDD0sC6GHv3R7k-202">
          <mxGeometry width="64" height="80" as="geometry" />
        </mxCell>
        <mxCell id="kboe6qkDD0sC6GHv3R7k-204" value="" style="shape=cylinder3;whiteSpace=wrap;html=1;boundedLbl=1;backgroundOutline=1;size=15;strokeWidth=3;" vertex="1" parent="kboe6qkDD0sC6GHv3R7k-203">
          <mxGeometry width="48" height="64" as="geometry" />
        </mxCell>
        <mxCell id="kboe6qkDD0sC6GHv3R7k-205" value="" style="shape=cylinder3;whiteSpace=wrap;html=1;boundedLbl=1;backgroundOutline=1;size=15;strokeWidth=3;" vertex="1" parent="kboe6qkDD0sC6GHv3R7k-203">
          <mxGeometry x="8" y="8" width="48" height="64" as="geometry" />
        </mxCell>
        <mxCell id="kboe6qkDD0sC6GHv3R7k-206" value="" style="shape=cylinder3;whiteSpace=wrap;html=1;boundedLbl=1;backgroundOutline=1;size=15;strokeWidth=3;" vertex="1" parent="kboe6qkDD0sC6GHv3R7k-203">
          <mxGeometry x="16" y="16" width="48" height="64" as="geometry" />
        </mxCell>
        <mxCell id="kboe6qkDD0sC6GHv3R7k-207" value="CP1PL-EHRSRC1" style="text;align=center;verticalAlign=middle;whiteSpace=wrap;rounded=0;fontFamily=Nova Round;fontStyle=1" vertex="1" parent="kboe6qkDD0sC6GHv3R7k-202">
          <mxGeometry x="2" y="90" width="60" height="30" as="geometry" />
        </mxCell>
        <mxCell id="kboe6qkDD0sC6GHv3R7k-208" value="" style="endArrow=classic;html=1;rounded=1;strokeWidth=3;curved=0;exitX=1.006;exitY=0.367;exitDx=0;exitDy=0;exitPerimeter=0;" edge="1" parent="1">
          <mxGeometry width="50" height="50" relative="1" as="geometry">
            <mxPoint x="310.0000000000001" y="-159.8800000000001" as="sourcePoint" />
            <mxPoint x="530" y="-50" as="targetPoint" />
            <Array as="points">
              <mxPoint x="380" y="-160" />
              <mxPoint x="380" y="-50" />
            </Array>
          </mxGeometry>
        </mxCell>
        <mxCell id="kboe6qkDD0sC6GHv3R7k-209" value="" style="group" vertex="1" connectable="0" parent="1">
          <mxGeometry x="470" y="230" width="213" height="190" as="geometry" />
        </mxCell>
        <mxCell id="kboe6qkDD0sC6GHv3R7k-210" value="" style="rounded=1;whiteSpace=wrap;html=1;strokeWidth=3;container=0;" vertex="1" parent="kboe6qkDD0sC6GHv3R7k-209">
          <mxGeometry width="213" height="190" as="geometry" />
        </mxCell>
        <mxCell id="kboe6qkDD0sC6GHv3R7k-211" value="" style="sketch=0;outlineConnect=0;fontColor=#232F3E;gradientColor=none;fillColor=#000000;strokeColor=none;dashed=0;verticalLabelPosition=bottom;verticalAlign=top;align=center;html=1;fontSize=12;fontStyle=0;aspect=fixed;shape=mxgraph.aws4.transfer_for_sftp_resource;container=0;" vertex="1" parent="kboe6qkDD0sC6GHv3R7k-209">
          <mxGeometry x="70.5" y="76.10999999999996" width="72" height="73.89" as="geometry" />
        </mxCell>
        <mxCell id="kboe6qkDD0sC6GHv3R7k-212" value="CP1VL-SFTP1" style="text;html=1;align=center;verticalAlign=middle;whiteSpace=wrap;rounded=0;fontFamily=Nova Round;fontSize=22;fontStyle=1;container=0;" vertex="1" parent="kboe6qkDD0sC6GHv3R7k-209">
          <mxGeometry x="10" y="30" width="190" height="30" as="geometry" />
        </mxCell>
        <mxCell id="kboe6qkDD0sC6GHv3R7k-213" value="" style="endArrow=classic;html=1;rounded=1;strokeWidth=3;exitX=1;exitY=0.25;exitDx=0;exitDy=0;curved=0;" edge="1" parent="1" source="kboe6qkDD0sC6GHv3R7k-99">
          <mxGeometry width="50" height="50" relative="1" as="geometry">
            <mxPoint x="330" y="580" as="sourcePoint" />
            <mxPoint x="460" y="330" as="targetPoint" />
            <Array as="points">
              <mxPoint x="370" y="600" />
              <mxPoint x="370" y="330" />
            </Array>
          </mxGeometry>
        </mxCell>
        <mxCell id="kboe6qkDD0sC6GHv3R7k-214" value="" style="endArrow=classic;html=1;rounded=1;strokeWidth=3;curved=0;" edge="1" parent="1">
          <mxGeometry width="50" height="50" relative="1" as="geometry">
            <mxPoint x="460" y="350" as="sourcePoint" />
            <mxPoint x="510" y="690" as="targetPoint" />
            <Array as="points">
              <mxPoint x="440" y="350" />
              <mxPoint x="440" y="690" />
            </Array>
          </mxGeometry>
        </mxCell>
        <mxCell id="kboe6qkDD0sC6GHv3R7k-215" value="" style="endArrow=classic;html=1;rounded=0;strokeWidth=3;" edge="1" parent="1">
          <mxGeometry width="50" height="50" relative="1" as="geometry">
            <mxPoint x="619.5" y="221" as="sourcePoint" />
            <mxPoint x="620" y="60" as="targetPoint" />
          </mxGeometry>
        </mxCell>
        <mxCell id="kboe6qkDD0sC6GHv3R7k-216" value="" style="endArrow=classic;html=1;rounded=1;strokeWidth=3;curved=0;" edge="1" parent="1">
          <mxGeometry width="50" height="50" relative="1" as="geometry">
            <mxPoint x="710" y="70" as="sourcePoint" />
            <mxPoint x="620" y="570" as="targetPoint" />
            <Array as="points">
              <mxPoint x="710" y="480" />
              <mxPoint x="620" y="480" />
            </Array>
          </mxGeometry>
        </mxCell>
        <mxCell id="kboe6qkDD0sC6GHv3R7k-217" value="" style="endArrow=classic;html=1;rounded=1;strokeWidth=3;curved=0;" edge="1" parent="1">
          <mxGeometry width="50" height="50" relative="1" as="geometry">
            <mxPoint x="320" y="60" as="sourcePoint" />
            <mxPoint x="460" y="310" as="targetPoint" />
            <Array as="points">
              <mxPoint x="370" y="60" />
              <mxPoint x="370" y="310" />
            </Array>
          </mxGeometry>
        </mxCell>
        <mxCell id="kboe6qkDD0sC6GHv3R7k-218" value="" style="rounded=1;whiteSpace=wrap;html=1;strokeWidth=3;container=0;" vertex="1" parent="1">
          <mxGeometry x="450" y="-510" width="213" height="190" as="geometry" />
        </mxCell>
        <mxCell id="kboe6qkDD0sC6GHv3R7k-219" value="CP1VL-EHRIEDEV1" style="text;html=1;align=center;verticalAlign=middle;whiteSpace=wrap;rounded=0;fontFamily=Nova Round;fontSize=22;fontStyle=1;container=0;" vertex="1" parent="1">
          <mxGeometry x="461.5" y="-490" width="190" height="30" as="geometry" />
        </mxCell>
        <mxCell id="kboe6qkDD0sC6GHv3R7k-220" value="" style="group" vertex="1" connectable="0" parent="1">
          <mxGeometry x="516" y="-450" width="78" height="120" as="geometry" />
        </mxCell>
        <mxCell id="kboe6qkDD0sC6GHv3R7k-221" value="" style="sketch=0;outlineConnect=0;fontColor=#232F3E;gradientColor=none;fillColor=#000000;strokeColor=none;dashed=0;verticalLabelPosition=bottom;verticalAlign=top;align=center;html=1;fontSize=12;fontStyle=0;aspect=fixed;pointerEvents=1;shape=mxgraph.aws4.mq_broker;" vertex="1" parent="kboe6qkDD0sC6GHv3R7k-220">
          <mxGeometry width="78" height="69" as="geometry" />
        </mxCell>
        <mxCell id="kboe6qkDD0sC6GHv3R7k-222" value="&lt;font face=&quot;Nova Round&quot;&gt;&lt;b&gt;Integration&lt;/b&gt;&lt;/font&gt;&lt;div&gt;&lt;font face=&quot;Nova Round&quot;&gt;&lt;b&gt;Engine&lt;/b&gt;&lt;/font&gt;&lt;/div&gt;" style="text;html=1;align=center;verticalAlign=middle;whiteSpace=wrap;rounded=0;" vertex="1" parent="kboe6qkDD0sC6GHv3R7k-220">
          <mxGeometry x="4" y="70" width="70" height="50" as="geometry" />
        </mxCell>
        <mxCell id="kboe6qkDD0sC6GHv3R7k-223" value="" style="endArrow=classic;html=1;rounded=0;strokeWidth=3;" edge="1" parent="1">
          <mxGeometry width="50" height="50" relative="1" as="geometry">
            <mxPoint x="500" y="221" as="sourcePoint" />
            <mxPoint x="500" y="-310" as="targetPoint" />
          </mxGeometry>
        </mxCell>
        <mxCell id="kboe6qkDD0sC6GHv3R7k-224" value="" style="endArrow=classic;startArrow=classic;html=1;rounded=0;strokeWidth=3;" edge="1" parent="1">
          <mxGeometry width="50" height="50" relative="1" as="geometry">
            <mxPoint x="669.5" y="-410" as="sourcePoint" />
            <mxPoint x="719.5" y="-410" as="targetPoint" />
          </mxGeometry>
        </mxCell>
        <mxCell id="kboe6qkDD0sC6GHv3R7k-225" value="" style="endArrow=classic;html=1;rounded=0;strokeWidth=3;" edge="1" parent="1">
          <mxGeometry width="50" height="50" relative="1" as="geometry">
            <mxPoint x="810.5" y="-158" as="sourcePoint" />
            <mxPoint x="810" y="-310" as="targetPoint" />
            <Array as="points" />
          </mxGeometry>
        </mxCell>
        <mxCell id="kboe6qkDD0sC6GHv3R7k-226" value="" style="group" vertex="1" connectable="0" parent="1">
          <mxGeometry x="726.5" y="-510" width="213" height="190" as="geometry" />
        </mxCell>
        <mxCell id="kboe6qkDD0sC6GHv3R7k-227" value="" style="rounded=1;whiteSpace=wrap;html=1;strokeWidth=3;container=0;" vertex="1" parent="kboe6qkDD0sC6GHv3R7k-226">
          <mxGeometry width="213" height="190" as="geometry" />
        </mxCell>
        <mxCell id="kboe6qkDD0sC6GHv3R7k-228" value="&lt;span data-teams=&quot;true&quot;&gt;MHOXIEDBDEV01&lt;/span&gt;" style="text;html=1;align=center;verticalAlign=middle;whiteSpace=wrap;rounded=0;fontFamily=Nova Round;fontSize=22;fontStyle=1;container=0;" vertex="1" parent="kboe6qkDD0sC6GHv3R7k-226">
          <mxGeometry x="11.5" y="20" width="190" height="30" as="geometry" />
        </mxCell>
        <mxCell id="kboe6qkDD0sC6GHv3R7k-229" value="&lt;font face=&quot;Nova Round&quot;&gt;&lt;b&gt;IE&lt;/b&gt;&lt;/font&gt;&lt;div&gt;&lt;font face=&quot;Nova Round&quot;&gt;&lt;b&gt;DW&lt;/b&gt;&lt;/font&gt;&lt;/div&gt;" style="shape=cylinder3;whiteSpace=wrap;html=1;boundedLbl=1;backgroundOutline=1;size=15;strokeWidth=3;" vertex="1" parent="kboe6qkDD0sC6GHv3R7k-226">
          <mxGeometry x="76.5" y="80" width="60" height="80" as="geometry" />
        </mxCell>
        <mxCell id="kboe6qkDD0sC6GHv3R7k-230" value="" style="group" vertex="1" connectable="0" parent="1">
          <mxGeometry x="860" y="-340" width="775" height="521" as="geometry" />
        </mxCell>
        <mxCell id="kboe6qkDD0sC6GHv3R7k-231" value="" style="rounded=1;whiteSpace=wrap;html=1;opacity=50;strokeWidth=3;arcSize=8;" vertex="1" parent="kboe6qkDD0sC6GHv3R7k-230">
          <mxGeometry x="469" width="306" height="240" as="geometry" />
        </mxCell>
        <mxCell id="kboe6qkDD0sC6GHv3R7k-232" value="" style="rounded=1;whiteSpace=wrap;html=1;opacity=50;strokeWidth=3;arcSize=8;" vertex="1" parent="kboe6qkDD0sC6GHv3R7k-230">
          <mxGeometry x="469" y="251" width="306" height="240" as="geometry" />
        </mxCell>
        <mxCell id="kboe6qkDD0sC6GHv3R7k-233" value="" style="group" vertex="1" connectable="0" parent="kboe6qkDD0sC6GHv3R7k-230">
          <mxGeometry x="509" y="18" width="265" height="222" as="geometry" />
        </mxCell>
        <mxCell id="kboe6qkDD0sC6GHv3R7k-234" value="" style="rounded=1;whiteSpace=wrap;html=1;arcSize=10;strokeWidth=3;" vertex="1" parent="kboe6qkDD0sC6GHv3R7k-233">
          <mxGeometry width="213" height="200" as="geometry" />
        </mxCell>
        <mxCell id="kboe6qkDD0sC6GHv3R7k-235" value="Akriviahealth.nhs.uk" style="text;html=1;align=center;verticalAlign=middle;whiteSpace=wrap;rounded=0;fontFamily=Nova Round;fontSize=21;fontStyle=1" vertex="1" parent="kboe6qkDD0sC6GHv3R7k-233">
          <mxGeometry x="10" y="10" width="193" height="30" as="geometry" />
        </mxCell>
        <mxCell id="kboe6qkDD0sC6GHv3R7k-236" value="" style="group" vertex="1" connectable="0" parent="kboe6qkDD0sC6GHv3R7k-233">
          <mxGeometry x="11" y="72" width="254" height="150" as="geometry" />
        </mxCell>
        <mxCell id="kboe6qkDD0sC6GHv3R7k-237" value="" style="endArrow=classic;html=1;rounded=0;strokeWidth=3;" edge="1" parent="kboe6qkDD0sC6GHv3R7k-236">
          <mxGeometry width="50" height="50" relative="1" as="geometry">
            <mxPoint x="90" y="31" as="sourcePoint" />
            <mxPoint x="120" y="31" as="targetPoint" />
          </mxGeometry>
        </mxCell>
        <mxCell id="kboe6qkDD0sC6GHv3R7k-238" value="" style="group" vertex="1" connectable="0" parent="kboe6qkDD0sC6GHv3R7k-236">
          <mxGeometry x="120" width="134" height="150" as="geometry" />
        </mxCell>
        <mxCell id="kboe6qkDD0sC6GHv3R7k-239" value="" style="group" vertex="1" connectable="0" parent="kboe6qkDD0sC6GHv3R7k-238">
          <mxGeometry x="-147" y="-90" width="285" height="240" as="geometry" />
        </mxCell>
        <mxCell id="kboe6qkDD0sC6GHv3R7k-240" value="AWS" style="text;html=1;align=center;verticalAlign=middle;whiteSpace=wrap;rounded=0;fontFamily=Nova Round;fontStyle=1;fontSize=22;textOpacity=50;textDirection=vertical-lr;" vertex="1" parent="kboe6qkDD0sC6GHv3R7k-239">
          <mxGeometry x="245" y="25" width="30" height="190" as="geometry" />
        </mxCell>
        <mxCell id="kboe6qkDD0sC6GHv3R7k-241" value="" style="endArrow=none;html=1;rounded=0;strokeWidth=3;opacity=50;" edge="1" parent="kboe6qkDD0sC6GHv3R7k-239">
          <mxGeometry width="50" height="50" relative="1" as="geometry">
            <mxPoint x="240" y="11" as="sourcePoint" />
            <mxPoint x="240" y="230" as="targetPoint" />
          </mxGeometry>
        </mxCell>
        <mxCell id="kboe6qkDD0sC6GHv3R7k-242" value="" style="verticalLabelPosition=bottom;html=1;verticalAlign=top;align=center;strokeColor=none;fillColor=#000000;shape=mxgraph.azure.virtual_machine_feature;pointerEvents=1;" vertex="1" parent="kboe6qkDD0sC6GHv3R7k-238">
          <mxGeometry x="5" width="60" height="60" as="geometry" />
        </mxCell>
        <mxCell id="kboe6qkDD0sC6GHv3R7k-243" value="&lt;font face=&quot;Nova Round&quot;&gt;&lt;b&gt;Processed Data VM&lt;/b&gt;&lt;/font&gt;" style="text;html=1;align=center;verticalAlign=middle;whiteSpace=wrap;rounded=0;" vertex="1" parent="kboe6qkDD0sC6GHv3R7k-238">
          <mxGeometry y="65" width="70" height="40" as="geometry" />
        </mxCell>
        <mxCell id="kboe6qkDD0sC6GHv3R7k-244" value="" style="group" vertex="1" connectable="0" parent="kboe6qkDD0sC6GHv3R7k-236">
          <mxGeometry y="10" width="83.56999999999994" height="95" as="geometry" />
        </mxCell>
        <mxCell id="kboe6qkDD0sC6GHv3R7k-245" value="" style="sketch=0;outlineConnect=0;fontColor=#232F3E;gradientColor=none;fillColor=#000000;strokeColor=none;dashed=0;verticalLabelPosition=bottom;verticalAlign=top;align=center;html=1;fontSize=12;fontStyle=0;aspect=fixed;pointerEvents=1;shape=mxgraph.aws4.iot_analytics_pipeline;" vertex="1" parent="kboe6qkDD0sC6GHv3R7k-244">
          <mxGeometry width="83.57" height="45" as="geometry" />
        </mxCell>
        <mxCell id="kboe6qkDD0sC6GHv3R7k-246" value="&lt;font face=&quot;Nova Round&quot;&gt;&lt;b&gt;Akriva Data Pipeline&lt;/b&gt;&lt;/font&gt;" style="text;html=1;align=center;verticalAlign=middle;whiteSpace=wrap;rounded=0;" vertex="1" parent="kboe6qkDD0sC6GHv3R7k-244">
          <mxGeometry x="6.789999999999964" y="55" width="70" height="40" as="geometry" />
        </mxCell>
        <mxCell id="kboe6qkDD0sC6GHv3R7k-247" value="" style="group" vertex="1" connectable="0" parent="kboe6qkDD0sC6GHv3R7k-230">
          <mxGeometry x="504" y="271" width="213" height="200" as="geometry" />
        </mxCell>
        <mxCell id="kboe6qkDD0sC6GHv3R7k-248" value="" style="rounded=1;whiteSpace=wrap;html=1;arcSize=10;strokeWidth=3;container=0;" vertex="1" parent="kboe6qkDD0sC6GHv3R7k-247">
          <mxGeometry width="213" height="200" as="geometry" />
        </mxCell>
        <mxCell id="kboe6qkDD0sC6GHv3R7k-249" value="mhtac.slam.nhs.uk" style="text;html=1;align=center;verticalAlign=middle;whiteSpace=wrap;rounded=0;fontFamily=Nova Round;fontSize=21;fontStyle=1;container=0;" vertex="1" parent="kboe6qkDD0sC6GHv3R7k-247">
          <mxGeometry x="10" y="10" width="193" height="30" as="geometry" />
        </mxCell>
        <mxCell id="kboe6qkDD0sC6GHv3R7k-250" value="" style="endArrow=classic;html=1;rounded=0;strokeWidth=3;" edge="1" parent="kboe6qkDD0sC6GHv3R7k-247">
          <mxGeometry width="50" height="50" relative="1" as="geometry">
            <mxPoint x="94" y="103" as="sourcePoint" />
            <mxPoint x="131" y="103" as="targetPoint" />
          </mxGeometry>
        </mxCell>
        <mxCell id="kboe6qkDD0sC6GHv3R7k-251" value="" style="verticalLabelPosition=bottom;html=1;verticalAlign=top;align=center;strokeColor=none;fillColor=#000000;shape=mxgraph.azure.virtual_machine_feature;pointerEvents=1;container=0;" vertex="1" parent="kboe6qkDD0sC6GHv3R7k-247">
          <mxGeometry x="136" y="72" width="60" height="60" as="geometry" />
        </mxCell>
        <mxCell id="kboe6qkDD0sC6GHv3R7k-252" value="&lt;font face=&quot;Nova Round&quot;&gt;&lt;b&gt;Processed Data VM&lt;/b&gt;&lt;/font&gt;" style="text;html=1;align=center;verticalAlign=middle;whiteSpace=wrap;rounded=0;container=0;" vertex="1" parent="kboe6qkDD0sC6GHv3R7k-247">
          <mxGeometry x="131" y="137" width="70" height="40" as="geometry" />
        </mxCell>
        <mxCell id="kboe6qkDD0sC6GHv3R7k-253" value="&lt;font face=&quot;Nova Round&quot;&gt;&lt;b&gt;Gen2 BLOB Storage&lt;/b&gt;&lt;/font&gt;" style="text;html=1;align=center;verticalAlign=middle;whiteSpace=wrap;rounded=0;container=0;" vertex="1" parent="kboe6qkDD0sC6GHv3R7k-247">
          <mxGeometry x="17.789999999999964" y="137" width="70" height="40" as="geometry" />
        </mxCell>
        <mxCell id="kboe6qkDD0sC6GHv3R7k-254" value="" style="group" vertex="1" connectable="0" parent="kboe6qkDD0sC6GHv3R7k-247">
          <mxGeometry x="23" y="75" width="60" height="55" as="geometry" />
        </mxCell>
        <mxCell id="kboe6qkDD0sC6GHv3R7k-255" value="" style="rounded=0;whiteSpace=wrap;html=1;strokeColor=none;fillColor=#CCCCCC;container=0;" vertex="1" parent="kboe6qkDD0sC6GHv3R7k-254">
          <mxGeometry x="37.2289156626506" width="5.060240963855422" height="18.333333333333336" as="geometry" />
        </mxCell>
        <mxCell id="kboe6qkDD0sC6GHv3R7k-256" value="" style="rounded=0;whiteSpace=wrap;html=1;strokeColor=none;fillColor=#CCCCCC;container=0;" vertex="1" parent="kboe6qkDD0sC6GHv3R7k-254">
          <mxGeometry x="1.0843373493975903" width="14.457831325301205" height="18.333333333333336" as="geometry" />
        </mxCell>
        <mxCell id="kboe6qkDD0sC6GHv3R7k-257" value="" style="rounded=0;whiteSpace=wrap;html=1;arcSize=20;fillColor=#4D4D4D;strokeColor=none;container=0;" vertex="1" parent="kboe6qkDD0sC6GHv3R7k-254">
          <mxGeometry x="15.542168674698795" width="21.686746987951807" height="18.333333333333336" as="geometry" />
        </mxCell>
        <mxCell id="kboe6qkDD0sC6GHv3R7k-258" value="" style="rounded=0;whiteSpace=wrap;html=1;arcSize=20;fillColor=#4D4D4D;container=0;" vertex="1" parent="kboe6qkDD0sC6GHv3R7k-254">
          <mxGeometry x="28.554216867469876" y="18.333333333333336" width="30.361445783132528" height="18.333333333333336" as="geometry" />
        </mxCell>
        <mxCell id="kboe6qkDD0sC6GHv3R7k-259" value="" style="rounded=1;whiteSpace=wrap;html=1;arcSize=20;fillColor=#CCCCCC;container=0;" vertex="1" parent="kboe6qkDD0sC6GHv3R7k-254">
          <mxGeometry x="1.0843373493975903" y="36.66666666666667" width="42.65060240963855" height="18.333333333333336" as="geometry" />
        </mxCell>
        <mxCell id="kboe6qkDD0sC6GHv3R7k-260" value="" style="endArrow=none;html=1;rounded=1;curved=0;strokeWidth=3;" edge="1" parent="kboe6qkDD0sC6GHv3R7k-254">
          <mxGeometry width="50" height="50" relative="1" as="geometry">
            <mxPoint x="58.91566265060241" as="sourcePoint" />
            <mxPoint x="1.0843373493975903" as="targetPoint" />
            <Array as="points">
              <mxPoint x="58.91566265060241" y="55" />
              <mxPoint x="1.0843373493975903" y="55" />
            </Array>
          </mxGeometry>
        </mxCell>
        <mxCell id="kboe6qkDD0sC6GHv3R7k-261" value="" style="endArrow=none;html=1;rounded=0;strokeWidth=3;" edge="1" parent="kboe6qkDD0sC6GHv3R7k-254">
          <mxGeometry width="50" height="50" relative="1" as="geometry">
            <mxPoint x="1.0843373493975903" y="36.66666666666667" as="sourcePoint" />
            <mxPoint x="58.91566265060241" y="36.66666666666667" as="targetPoint" />
          </mxGeometry>
        </mxCell>
        <mxCell id="kboe6qkDD0sC6GHv3R7k-262" value="" style="endArrow=none;html=1;rounded=0;strokeWidth=3;" edge="1" parent="kboe6qkDD0sC6GHv3R7k-254">
          <mxGeometry width="50" height="50" relative="1" as="geometry">
            <mxPoint x="1.0843373493975903" y="18.333333333333336" as="sourcePoint" />
            <mxPoint x="58.91566265060241" y="18.333333333333336" as="targetPoint" />
          </mxGeometry>
        </mxCell>
        <mxCell id="kboe6qkDD0sC6GHv3R7k-263" value="" style="endArrow=none;html=1;rounded=0;strokeWidth=3;" edge="1" parent="kboe6qkDD0sC6GHv3R7k-254">
          <mxGeometry width="50" height="50" relative="1" as="geometry">
            <mxPoint x="15.542168674698795" y="18.333333333333336" as="sourcePoint" />
            <mxPoint x="15.542168674698795" as="targetPoint" />
          </mxGeometry>
        </mxCell>
        <mxCell id="kboe6qkDD0sC6GHv3R7k-264" value="" style="endArrow=none;html=1;rounded=0;strokeWidth=3;" edge="1" parent="kboe6qkDD0sC6GHv3R7k-254">
          <mxGeometry width="50" height="50" relative="1" as="geometry">
            <mxPoint x="37.2289156626506" y="18.333333333333336" as="sourcePoint" />
            <mxPoint x="37.2289156626506" as="targetPoint" />
          </mxGeometry>
        </mxCell>
        <mxCell id="kboe6qkDD0sC6GHv3R7k-265" value="" style="endArrow=none;html=1;rounded=0;strokeWidth=3;" edge="1" parent="kboe6qkDD0sC6GHv3R7k-254">
          <mxGeometry width="50" height="50" relative="1" as="geometry">
            <mxPoint x="42.28915662650602" y="18.333333333333336" as="sourcePoint" />
            <mxPoint x="42.28915662650602" as="targetPoint" />
          </mxGeometry>
        </mxCell>
        <mxCell id="kboe6qkDD0sC6GHv3R7k-266" value="" style="endArrow=none;html=1;rounded=0;strokeWidth=3;" edge="1" parent="kboe6qkDD0sC6GHv3R7k-254">
          <mxGeometry width="50" height="50" relative="1" as="geometry">
            <mxPoint x="29.27710843373494" y="36.66666666666667" as="sourcePoint" />
            <mxPoint x="29.27710843373494" y="18.333333333333336" as="targetPoint" />
          </mxGeometry>
        </mxCell>
        <mxCell id="kboe6qkDD0sC6GHv3R7k-267" value="" style="endArrow=none;html=1;rounded=0;strokeWidth=3;" edge="1" parent="kboe6qkDD0sC6GHv3R7k-254">
          <mxGeometry width="50" height="50" relative="1" as="geometry">
            <mxPoint x="43.01204819277109" y="54.38888888888889" as="sourcePoint" />
            <mxPoint x="43.01204819277109" y="36.05555555555556" as="targetPoint" />
          </mxGeometry>
        </mxCell>
        <mxCell id="kboe6qkDD0sC6GHv3R7k-268" value="" style="endArrow=none;html=1;rounded=0;strokeWidth=2;" edge="1" parent="kboe6qkDD0sC6GHv3R7k-254">
          <mxGeometry width="50" height="50" relative="1" as="geometry">
            <mxPoint y="0.3055555555555555" as="sourcePoint" />
            <mxPoint x="60" y="0.3055555555555555" as="targetPoint" />
          </mxGeometry>
        </mxCell>
        <mxCell id="kboe6qkDD0sC6GHv3R7k-269" value="Azure" style="text;html=1;align=center;verticalAlign=middle;whiteSpace=wrap;rounded=0;fontFamily=Nova Round;fontStyle=1;fontSize=22;textOpacity=50;textDirection=vertical-lr;" vertex="1" parent="kboe6qkDD0sC6GHv3R7k-230">
          <mxGeometry x="734" y="276" width="30" height="190" as="geometry" />
        </mxCell>
        <mxCell id="kboe6qkDD0sC6GHv3R7k-270" value="" style="endArrow=none;html=1;rounded=0;strokeWidth=3;opacity=50;" edge="1" parent="kboe6qkDD0sC6GHv3R7k-230">
          <mxGeometry width="50" height="50" relative="1" as="geometry">
            <mxPoint x="731" y="262" as="sourcePoint" />
            <mxPoint x="731" y="481" as="targetPoint" />
          </mxGeometry>
        </mxCell>
        <mxCell id="kboe6qkDD0sC6GHv3R7k-271" value="" style="endArrow=classic;html=1;rounded=0;strokeWidth=3;" edge="1" parent="kboe6qkDD0sC6GHv3R7k-230">
          <mxGeometry width="50" height="50" relative="1" as="geometry">
            <mxPoint x="371" y="111" as="sourcePoint" />
            <mxPoint x="449" y="111" as="targetPoint" />
          </mxGeometry>
        </mxCell>
        <mxCell id="kboe6qkDD0sC6GHv3R7k-272" value="" style="endArrow=classic;html=1;rounded=0;strokeWidth=3;" edge="1" parent="kboe6qkDD0sC6GHv3R7k-230">
          <mxGeometry width="50" height="50" relative="1" as="geometry">
            <mxPoint x="371" y="300.5" as="sourcePoint" />
            <mxPoint x="459" y="301" as="targetPoint" />
          </mxGeometry>
        </mxCell>
        <mxCell id="kboe6qkDD0sC6GHv3R7k-273" value="" style="rounded=1;whiteSpace=wrap;html=1;arcSize=10;strokeWidth=3;" vertex="1" parent="kboe6qkDD0sC6GHv3R7k-230">
          <mxGeometry x="188.75" width="173.5" height="521" as="geometry" />
        </mxCell>
        <mxCell id="kboe6qkDD0sC6GHv3R7k-274" value="" style="group" vertex="1" connectable="0" parent="kboe6qkDD0sC6GHv3R7k-230">
          <mxGeometry x="241" y="71" width="70" height="120" as="geometry" />
        </mxCell>
        <mxCell id="kboe6qkDD0sC6GHv3R7k-275" value="" style="sketch=0;outlineConnect=0;fontColor=#232F3E;gradientColor=none;fillColor=#000000;strokeColor=none;dashed=0;verticalLabelPosition=bottom;verticalAlign=top;align=center;html=1;fontSize=12;fontStyle=0;aspect=fixed;pointerEvents=1;shape=mxgraph.aws4.ec2_aws_microservice_extractor_for_net;" vertex="1" parent="kboe6qkDD0sC6GHv3R7k-274">
          <mxGeometry width="70" height="70" as="geometry" />
        </mxCell>
        <mxCell id="kboe6qkDD0sC6GHv3R7k-276" value="&lt;font face=&quot;Nova Round&quot;&gt;&lt;b&gt;Akrivia Extract Tool&lt;/b&gt;&lt;/font&gt;" style="text;html=1;align=center;verticalAlign=middle;whiteSpace=wrap;rounded=0;" vertex="1" parent="kboe6qkDD0sC6GHv3R7k-274">
          <mxGeometry y="70" width="70" height="50" as="geometry" />
        </mxCell>
        <mxCell id="kboe6qkDD0sC6GHv3R7k-277" value="CP1PL-BICRIS1" style="text;html=1;align=center;verticalAlign=middle;whiteSpace=wrap;rounded=0;fontFamily=Nova Round;fontSize=22;fontStyle=1" vertex="1" parent="kboe6qkDD0sC6GHv3R7k-230">
          <mxGeometry x="181" y="11" width="190" height="30" as="geometry" />
        </mxCell>
        <mxCell id="kboe6qkDD0sC6GHv3R7k-278" value="&lt;font face=&quot;Nova Round&quot;&gt;&lt;b&gt;Extract for SLaM&lt;/b&gt;&lt;/font&gt;" style="shape=card;whiteSpace=wrap;html=1;strokeWidth=3;size=20;" vertex="1" parent="kboe6qkDD0sC6GHv3R7k-230">
          <mxGeometry x="246" y="261" width="60" height="80" as="geometry" />
        </mxCell>
        <mxCell id="kboe6qkDD0sC6GHv3R7k-279" value="&lt;font face=&quot;Nova Round&quot;&gt;&lt;b&gt;Mirror&lt;/b&gt;&lt;/font&gt;" style="shape=cylinder3;whiteSpace=wrap;html=1;boundedLbl=1;backgroundOutline=1;size=15;strokeWidth=3;" vertex="1" parent="kboe6qkDD0sC6GHv3R7k-230">
          <mxGeometry x="246" y="401" width="60" height="80" as="geometry" />
        </mxCell>
        <mxCell id="kboe6qkDD0sC6GHv3R7k-280" value="" style="endArrow=classic;html=1;rounded=0;strokeWidth=3;" edge="1" parent="kboe6qkDD0sC6GHv3R7k-230">
          <mxGeometry width="50" height="50" relative="1" as="geometry">
            <mxPoint y="300" as="sourcePoint" />
            <mxPoint x="231" y="300.33000000000004" as="targetPoint" />
          </mxGeometry>
        </mxCell>
        <mxCell id="kboe6qkDD0sC6GHv3R7k-281" value="" style="endArrow=classic;html=1;rounded=1;strokeWidth=3;curved=0;" edge="1" parent="kboe6qkDD0sC6GHv3R7k-230">
          <mxGeometry width="50" height="50" relative="1" as="geometry">
            <mxPoint x="121" y="301" as="sourcePoint" />
            <mxPoint x="231" y="111" as="targetPoint" />
            <Array as="points">
              <mxPoint x="121" y="111" />
            </Array>
          </mxGeometry>
        </mxCell>
        <mxCell id="kboe6qkDD0sC6GHv3R7k-282" value="" style="endArrow=classic;html=1;rounded=1;strokeWidth=3;curved=0;" edge="1" parent="kboe6qkDD0sC6GHv3R7k-230">
          <mxGeometry width="50" height="50" relative="1" as="geometry">
            <mxPoint x="121" y="301" as="sourcePoint" />
            <mxPoint x="231" y="451" as="targetPoint" />
            <Array as="points">
              <mxPoint x="121" y="451" />
            </Array>
          </mxGeometry>
        </mxCell>
        <mxCell id="kboe6qkDD0sC6GHv3R7k-283" value="" style="endArrow=classic;html=1;rounded=1;strokeWidth=3;curved=0;" edge="1" parent="1">
          <mxGeometry width="50" height="50" relative="1" as="geometry">
            <mxPoint x="252" y="-258.59" as="sourcePoint" />
            <mxPoint x="790" y="-310" as="targetPoint" />
            <Array as="points">
              <mxPoint x="790" y="-260" />
            </Array>
          </mxGeometry>
        </mxCell>
        <mxCell id="kboe6qkDD0sC6GHv3R7k-284" value="" style="endArrow=classic;html=1;rounded=1;strokeWidth=3;curved=0;" edge="1" parent="1">
          <mxGeometry width="50" height="50" relative="1" as="geometry">
            <mxPoint x="464" y="290" as="sourcePoint" />
            <mxPoint x="1310" y="-940" as="targetPoint" />
            <Array as="points">
              <mxPoint x="434" y="290" />
              <mxPoint x="430" y="-940" />
            </Array>
          </mxGeometry>
        </mxCell>
        <mxCell id="kboe6qkDD0sC6GHv3R7k-285" value="" style="rounded=1;whiteSpace=wrap;html=1;strokeWidth=3;" vertex="1" parent="1">
          <mxGeometry x="779.5" y="1000" width="260.5" height="261" as="geometry" />
        </mxCell>
        <mxCell id="kboe6qkDD0sC6GHv3R7k-286" value="MESH Service" style="text;html=1;align=center;verticalAlign=middle;whiteSpace=wrap;rounded=0;fontFamily=Nova Round;fontStyle=1;fontSize=22;" vertex="1" parent="1">
          <mxGeometry x="783.5" y="1020.88" width="246.5" height="39.12" as="geometry" />
        </mxCell>
        <mxCell id="kboe6qkDD0sC6GHv3R7k-287" value="" style="group" vertex="1" connectable="0" parent="1">
          <mxGeometry x="829.4300000000001" y="1104.4" width="60.129999999999995" height="104.40000000000005" as="geometry" />
        </mxCell>
        <mxCell id="kboe6qkDD0sC6GHv3R7k-288" value="" style="sketch=0;outlineConnect=0;fontColor=#232F3E;gradientColor=none;fillColor=#000000;strokeColor=none;dashed=0;verticalLabelPosition=bottom;verticalAlign=top;align=center;html=1;fontSize=12;fontStyle=0;aspect=fixed;pointerEvents=1;shape=mxgraph.aws4.message;" vertex="1" parent="kboe6qkDD0sC6GHv3R7k-287">
          <mxGeometry width="60.13" height="70" as="geometry" />
        </mxCell>
        <mxCell id="kboe6qkDD0sC6GHv3R7k-289" value="Opt Outs" style="text;html=1;align=center;verticalAlign=middle;whiteSpace=wrap;rounded=0;fontStyle=1;fontFamily=Nova Round;" vertex="1" parent="kboe6qkDD0sC6GHv3R7k-287">
          <mxGeometry x="0.12999999999999545" y="73.08000000000001" width="60" height="31.32000000000001" as="geometry" />
        </mxCell>
        <mxCell id="kboe6qkDD0sC6GHv3R7k-290" value="" style="html=1;verticalLabelPosition=bottom;align=center;labelBackgroundColor=#ffffff;verticalAlign=top;strokeWidth=3;strokeColor=#000000;shadow=0;dashed=0;shape=mxgraph.ios7.icons.down;" vertex="1" parent="1">
          <mxGeometry x="939.5" y="1107.4" width="50" height="57.19999999999999" as="geometry" />
        </mxCell>
        <mxCell id="kboe6qkDD0sC6GHv3R7k-291" value="ePMA" style="text;html=1;align=center;verticalAlign=middle;whiteSpace=wrap;rounded=0;fontStyle=1;fontFamily=Nova Round;" vertex="1" parent="1">
          <mxGeometry x="934.5" y="1177.6" width="60" height="31.20000000000001" as="geometry" />
        </mxCell>
        <mxCell id="kboe6qkDD0sC6GHv3R7k-292" value="" style="endArrow=classic;html=1;rounded=0;strokeWidth=3;" edge="1" parent="1">
          <mxGeometry width="50" height="50" relative="1" as="geometry">
            <mxPoint x="920" y="760" as="sourcePoint" />
            <mxPoint x="920" y="990" as="targetPoint" />
          </mxGeometry>
        </mxCell>
        <mxCell id="kboe6qkDD0sC6GHv3R7k-293" value="" style="endArrow=classic;html=1;rounded=1;strokeWidth=3;exitX=0.5;exitY=1;exitDx=0;exitDy=0;curved=0;" edge="1" parent="1" source="kboe6qkDD0sC6GHv3R7k-193">
          <mxGeometry width="50" height="50" relative="1" as="geometry">
            <mxPoint x="790" y="70" as="sourcePoint" />
            <mxPoint x="1320" y="280" as="targetPoint" />
            <Array as="points">
              <mxPoint x="795" y="280" />
            </Array>
          </mxGeometry>
        </mxCell>
        <mxCell id="kboe6qkDD0sC6GHv3R7k-294" value="" style="rounded=1;whiteSpace=wrap;html=1;opacity=50;strokeWidth=3;arcSize=8;" vertex="1" parent="1">
          <mxGeometry x="1330" y="170" width="306" height="240" as="geometry" />
        </mxCell>
        <mxCell id="kboe6qkDD0sC6GHv3R7k-295" value="" style="group" vertex="1" connectable="0" parent="1">
          <mxGeometry x="1370" y="190" width="213" height="200" as="geometry" />
        </mxCell>
        <mxCell id="kboe6qkDD0sC6GHv3R7k-296" value="" style="rounded=1;whiteSpace=wrap;html=1;arcSize=10;strokeWidth=3;container=0;" vertex="1" parent="kboe6qkDD0sC6GHv3R7k-295">
          <mxGeometry width="213" height="200" as="geometry" />
        </mxCell>
        <mxCell id="kboe6qkDD0sC6GHv3R7k-297" value="SDE" style="text;html=1;align=center;verticalAlign=middle;whiteSpace=wrap;rounded=0;fontFamily=Nova Round;fontSize=21;fontStyle=1;container=0;" vertex="1" parent="kboe6qkDD0sC6GHv3R7k-295">
          <mxGeometry x="10" y="10" width="193" height="30" as="geometry" />
        </mxCell>
        <mxCell id="kboe6qkDD0sC6GHv3R7k-298" value="" style="group" vertex="1" connectable="0" parent="kboe6qkDD0sC6GHv3R7k-295">
          <mxGeometry x="130" y="60" width="60" height="55" as="geometry" />
        </mxCell>
        <mxCell id="kboe6qkDD0sC6GHv3R7k-299" value="" style="rounded=0;whiteSpace=wrap;html=1;strokeColor=none;fillColor=#CCCCCC;container=0;" vertex="1" parent="kboe6qkDD0sC6GHv3R7k-298">
          <mxGeometry x="37.2289156626506" width="5.060240963855422" height="18.333333333333336" as="geometry" />
        </mxCell>
        <mxCell id="kboe6qkDD0sC6GHv3R7k-300" value="" style="rounded=0;whiteSpace=wrap;html=1;strokeColor=none;fillColor=#CCCCCC;container=0;" vertex="1" parent="kboe6qkDD0sC6GHv3R7k-298">
          <mxGeometry x="1.0843373493975903" width="14.457831325301205" height="18.333333333333336" as="geometry" />
        </mxCell>
        <mxCell id="kboe6qkDD0sC6GHv3R7k-301" value="" style="rounded=0;whiteSpace=wrap;html=1;arcSize=20;fillColor=#4D4D4D;strokeColor=none;container=0;" vertex="1" parent="kboe6qkDD0sC6GHv3R7k-298">
          <mxGeometry x="15.542168674698795" width="21.686746987951807" height="18.333333333333336" as="geometry" />
        </mxCell>
        <mxCell id="kboe6qkDD0sC6GHv3R7k-302" value="" style="rounded=0;whiteSpace=wrap;html=1;arcSize=20;fillColor=#4D4D4D;container=0;" vertex="1" parent="kboe6qkDD0sC6GHv3R7k-298">
          <mxGeometry x="28.554216867469876" y="18.333333333333336" width="30.361445783132528" height="18.333333333333336" as="geometry" />
        </mxCell>
        <mxCell id="kboe6qkDD0sC6GHv3R7k-303" value="" style="rounded=1;whiteSpace=wrap;html=1;arcSize=20;fillColor=#CCCCCC;container=0;" vertex="1" parent="kboe6qkDD0sC6GHv3R7k-298">
          <mxGeometry x="1.0843373493975903" y="36.66666666666667" width="42.65060240963855" height="18.333333333333336" as="geometry" />
        </mxCell>
        <mxCell id="kboe6qkDD0sC6GHv3R7k-304" value="" style="endArrow=none;html=1;rounded=1;curved=0;strokeWidth=3;" edge="1" parent="kboe6qkDD0sC6GHv3R7k-298">
          <mxGeometry width="50" height="50" relative="1" as="geometry">
            <mxPoint x="58.91566265060241" as="sourcePoint" />
            <mxPoint x="1.0843373493975903" as="targetPoint" />
            <Array as="points">
              <mxPoint x="58.91566265060241" y="55" />
              <mxPoint x="1.0843373493975903" y="55" />
            </Array>
          </mxGeometry>
        </mxCell>
        <mxCell id="kboe6qkDD0sC6GHv3R7k-305" value="" style="endArrow=none;html=1;rounded=0;strokeWidth=3;" edge="1" parent="kboe6qkDD0sC6GHv3R7k-298">
          <mxGeometry width="50" height="50" relative="1" as="geometry">
            <mxPoint x="1.0843373493975903" y="36.66666666666667" as="sourcePoint" />
            <mxPoint x="58.91566265060241" y="36.66666666666667" as="targetPoint" />
          </mxGeometry>
        </mxCell>
        <mxCell id="kboe6qkDD0sC6GHv3R7k-306" value="" style="endArrow=none;html=1;rounded=0;strokeWidth=3;" edge="1" parent="kboe6qkDD0sC6GHv3R7k-298">
          <mxGeometry width="50" height="50" relative="1" as="geometry">
            <mxPoint x="1.0843373493975903" y="18.333333333333336" as="sourcePoint" />
            <mxPoint x="58.91566265060241" y="18.333333333333336" as="targetPoint" />
          </mxGeometry>
        </mxCell>
        <mxCell id="kboe6qkDD0sC6GHv3R7k-307" value="" style="endArrow=none;html=1;rounded=0;strokeWidth=3;" edge="1" parent="kboe6qkDD0sC6GHv3R7k-298">
          <mxGeometry width="50" height="50" relative="1" as="geometry">
            <mxPoint x="15.542168674698795" y="18.333333333333336" as="sourcePoint" />
            <mxPoint x="15.542168674698795" as="targetPoint" />
          </mxGeometry>
        </mxCell>
        <mxCell id="kboe6qkDD0sC6GHv3R7k-308" value="" style="endArrow=none;html=1;rounded=0;strokeWidth=3;" edge="1" parent="kboe6qkDD0sC6GHv3R7k-298">
          <mxGeometry width="50" height="50" relative="1" as="geometry">
            <mxPoint x="37.2289156626506" y="18.333333333333336" as="sourcePoint" />
            <mxPoint x="37.2289156626506" as="targetPoint" />
          </mxGeometry>
        </mxCell>
        <mxCell id="kboe6qkDD0sC6GHv3R7k-309" value="" style="endArrow=none;html=1;rounded=0;strokeWidth=3;" edge="1" parent="kboe6qkDD0sC6GHv3R7k-298">
          <mxGeometry width="50" height="50" relative="1" as="geometry">
            <mxPoint x="42.28915662650602" y="18.333333333333336" as="sourcePoint" />
            <mxPoint x="42.28915662650602" as="targetPoint" />
          </mxGeometry>
        </mxCell>
        <mxCell id="kboe6qkDD0sC6GHv3R7k-310" value="" style="endArrow=none;html=1;rounded=0;strokeWidth=3;" edge="1" parent="kboe6qkDD0sC6GHv3R7k-298">
          <mxGeometry width="50" height="50" relative="1" as="geometry">
            <mxPoint x="29.27710843373494" y="36.66666666666667" as="sourcePoint" />
            <mxPoint x="29.27710843373494" y="18.333333333333336" as="targetPoint" />
          </mxGeometry>
        </mxCell>
        <mxCell id="kboe6qkDD0sC6GHv3R7k-311" value="" style="endArrow=none;html=1;rounded=0;strokeWidth=3;" edge="1" parent="kboe6qkDD0sC6GHv3R7k-298">
          <mxGeometry width="50" height="50" relative="1" as="geometry">
            <mxPoint x="43.01204819277109" y="54.38888888888889" as="sourcePoint" />
            <mxPoint x="43.01204819277109" y="36.05555555555556" as="targetPoint" />
          </mxGeometry>
        </mxCell>
        <mxCell id="kboe6qkDD0sC6GHv3R7k-312" value="" style="endArrow=none;html=1;rounded=0;strokeWidth=2;" edge="1" parent="kboe6qkDD0sC6GHv3R7k-298">
          <mxGeometry width="50" height="50" relative="1" as="geometry">
            <mxPoint y="0.3055555555555555" as="sourcePoint" />
            <mxPoint x="60" y="0.3055555555555555" as="targetPoint" />
          </mxGeometry>
        </mxCell>
        <mxCell id="kboe6qkDD0sC6GHv3R7k-313" value="&lt;font face=&quot;Nova Round&quot;&gt;&lt;b&gt;SDE Storage&lt;/b&gt;&lt;/font&gt;" style="text;html=1;align=center;verticalAlign=middle;whiteSpace=wrap;rounded=0;container=0;" vertex="1" parent="kboe6qkDD0sC6GHv3R7k-295">
          <mxGeometry x="125" y="120" width="70" height="40" as="geometry" />
        </mxCell>
        <mxCell id="kboe6qkDD0sC6GHv3R7k-314" value="" style="group" vertex="1" connectable="0" parent="kboe6qkDD0sC6GHv3R7k-295">
          <mxGeometry x="20" y="65" width="83.56999999999994" height="95" as="geometry" />
        </mxCell>
        <mxCell id="kboe6qkDD0sC6GHv3R7k-315" value="" style="sketch=0;outlineConnect=0;fontColor=#232F3E;gradientColor=none;fillColor=#000000;strokeColor=none;dashed=0;verticalLabelPosition=bottom;verticalAlign=top;align=center;html=1;fontSize=12;fontStyle=0;aspect=fixed;pointerEvents=1;shape=mxgraph.aws4.iot_analytics_pipeline;" vertex="1" parent="kboe6qkDD0sC6GHv3R7k-314">
          <mxGeometry width="83.57" height="45" as="geometry" />
        </mxCell>
        <mxCell id="kboe6qkDD0sC6GHv3R7k-316" value="&lt;font face=&quot;Nova Round&quot;&gt;&lt;b&gt;Data Factory&lt;/b&gt;&lt;/font&gt;" style="text;html=1;align=center;verticalAlign=middle;whiteSpace=wrap;rounded=0;" vertex="1" parent="kboe6qkDD0sC6GHv3R7k-314">
          <mxGeometry x="6.789999999999964" y="55" width="70" height="40" as="geometry" />
        </mxCell>
        <mxCell id="kboe6qkDD0sC6GHv3R7k-317" value="Azure" style="text;html=1;align=center;verticalAlign=middle;whiteSpace=wrap;rounded=0;fontFamily=Nova Round;fontStyle=1;fontSize=22;textOpacity=50;textDirection=vertical-lr;" vertex="1" parent="1">
          <mxGeometry x="1595" y="195" width="30" height="190" as="geometry" />
        </mxCell>
        <mxCell id="kboe6qkDD0sC6GHv3R7k-318" value="" style="endArrow=none;html=1;rounded=0;strokeWidth=3;opacity=50;" edge="1" parent="1">
          <mxGeometry width="50" height="50" relative="1" as="geometry">
            <mxPoint x="1593.67" y="180.5" as="sourcePoint" />
            <mxPoint x="1593.67" y="399.5" as="targetPoint" />
          </mxGeometry>
        </mxCell>
      </root>
    </mxGraphModel>
  </diagram>
</mxfile>
